<svg xmlns="http://www.w3.org/2000/svg" version="1.1" xmlns:xlink="http://www.w3.org/1999/xlink" xmlns:svgjs="http://svgjs.dev/svgjs" viewBox="0 0 1200 3930"><rect width="1200" height="3930" fill="#ffffff"></rect><svg id="title"><text x="0" y="17.1015625" svgjs:data="{&quot;leading&quot;:&quot;1.3&quot;}"><tspan dy="0" x="0" svgjs:data="{&quot;newLined&quot;:true}">Renderer Contact Sheet</tspan><tspan dy="20.8" x="0" svgjs:data="{&quot;newLined&quot;:true}">(Generated 22 Jun 2023)</tspan></text></svg><svg id="sheet_core" width="1200" height="820" x="0" y="40"><svg><text x="0" y="17.1015625" svgjs:data="{&quot;leading&quot;:&quot;1.3&quot;}">Sheet Name: core</text></svg><svg width="200" height="200" x="0" y="5"><symbol viewBox="74.911456 121.9229215 9.260386999999994 9.260386999999994" id="SvgjsSymbol1000"><path d="m 78.838853,129.34362 q 0.206705,0.20671 -0.124023,0.20671 -1.157549,1.03352 -2.893871,1.6123 l -0.578775,-0.95085 q 1.694982,-0.45475 2.893871,-1.48827 z m 4.175442,-6.49054 q 0.08268,0.20671 -0.289387,0.0827 -2.315097,0.24805 -4.960922,0.45475 l 0.04134,1.24024 h 5.70506 v 0.78547 H 81.56736 v 1.98437 h 2.604483 v 0.90951 h -9.260387 v -0.90951 h 2.149733 l -0.206705,-5.0436 0.950843,0.28939 q 2.521802,-0.33073 4.506171,-0.7028 z m -2.273756,4.54751 v -1.98437 h -2.893871 l 0.08268,1.98437 z m 0.248046,1.32292 q 1.157549,0.95084 3.100576,1.44693 l -0.454751,0.95084 q -1.860345,-0.45475 -3.26594,-1.69498 z" data-playerfill="true" stroke-width="0" fill="#000000"></path></symbol><use href="#SvgjsSymbol1000" x="25" y="25" transform="matrix(0.75,0,0,0.75,6.25,6.25)"></use><text x="0" y="192.1015625" svgjs:data="{&quot;leading&quot;:&quot;1.3&quot;}">cannon-piece</text></svg><svg width="200" height="200" x="200" y="5"><symbol viewBox="77.45159912109375 111.12551879882812 9.136360168457031 9.136360168457031" id="SvgjsSymbol1001"><path d="m 85.389067,111.12552 v 4.87824 h -0.826821 v -0.2067 h -2.149732 v 1.11621 h 3.224599 v 0.78548 h -3.224599 v 1.24023 h 4.175442 v 0.78548 h -9.136364 v -0.78548 h 4.134101 v -1.24023 h -3.224599 v -0.78548 h 3.224599 v -1.11621 H 79.43596 v 0.37207 h -0.82682 v -5.04361 z m -3.803374,1.94303 V 111.911 H 79.43596 v 1.15755 z m 2.976553,0 V 111.911 h -2.149732 v 1.15755 z m -2.976553,1.94303 v -1.15755 H 79.43596 v 1.15755 z m 2.976553,-1.15755 h -2.149732 v 1.15755 h 2.149732 z" data-playerfill="true" stroke-width="0" fill="#000000"></path></symbol><use href="#SvgjsSymbol1001" x="25" y="25" transform="matrix(0.75,0,0,0.75,6.25,6.25)"></use><text x="0" y="192.1015625" svgjs:data="{&quot;leading&quot;:&quot;1.3&quot;}">cannon-town</text></svg><svg width="200" height="200" x="400" y="5"><symbol viewBox="-475.9079999999999 36.31599999999999 426.3689999999998 426.3689999999998" id="SvgjsSymbol1002"><g transform="matrix(-1,0,0,1,0,0)"><path d="m 263.262,106.211 c 2.6,1.552 3.247,7.194 1.075,9.141 -2.077,0.105 -3.962,0.019 -5.377,-0.538 0.499,-1.652 3.367,-0.935 4.302,-2.151 0,-2.15 0,-4.301 0,-6.452 z" fill-opacity="0" fill-rule="evenodd" clip-rule="evenodd"></path><path d="m 242.292,112.664 c -24.772,11.32 -49.586,30.53 -44.088,67.208 4.425,29.521 35.045,45.071 66.671,49.465 11.206,1.557 21.695,0.359 32.26,3.226 -5.541,2.524 -13.982,2.148 -19.894,4.301 7.94,9.624 25.776,14.01 32.26,26.883 -15.354,-13.322 -43.042,-14.309 -61.832,-24.195 3.468,9.984 13.34,16.395 16.667,24.733 -23.058,-8.307 -36.991,-25.737 -52.154,-41.938 -0.539,7.917 5.007,14.327 7.527,20.969 -12.178,-8.075 -20.802,-24.362 -26.346,-40.863 -3.635,6.581 -3.838,16.593 -5.914,24.732 -6.093,-14.97 -7.286,-36.779 -5.915,-57.53 -6.233,3.625 -7.932,16.441 -13.979,22.044 -0.708,-23.868 10.329,-40.541 22.044,-53.767 -9.226,-1.247 -20.225,4.797 -27.421,9.14 3.044,-10.592 14.834,-17.349 26.346,-23.12 15.081,-7.556 33.209,-13.95 53.768,-11.288 z" data-playerfill="true" fill-rule="evenodd" clip-rule="evenodd"></path><path d="m 251.433,118.04 c -3.764,5.386 -10.131,7.672 -14.517,12.367 -4.299,4.603 -6.01,11.333 -11.829,14.517 -0.861,-2.903 0.165,-7.692 -2.688,-8.603 -7.226,3.886 -11.634,10.59 -13.979,19.356 1.683,1.821 3.186,-1.085 4.839,-1.075 1.059,1.988 1.073,5.02 2.688,6.452 1.972,0 3.943,0 5.915,0 -0.47,15.346 4.1,25.651 13.441,31.185 5.098,-2.43 1.7,-13.354 2.688,-19.894 3.292,-2.443 4.467,-7.003 3.764,-13.442 2.128,-1.457 5.184,-1.984 6.99,-3.764 12.825,6.71 25.207,13.864 33.335,25.271 -8.39,-2.596 -16.82,-15.367 -29.034,-12.366 -0.164,3.39 5.122,1.33 6.452,3.226 5.479,11.051 14.618,27.692 7.527,43.013 -1.206,-13.669 -1.804,-27.947 -12.366,-32.26 -2.406,2.976 0.818,6.777 1.612,10.753 1.74,8.713 0.233,18.816 -2.688,25.271 -1.986,-7.21 1.92,-28.182 -5.915,-28.497 -6.445,-0.259 -4.507,14.468 -3.226,19.894 -0.851,2.522 -1.923,-3.237 -4.301,-2.688 0.1,2.273 2.451,4.41 1.075,6.452 -15.401,-6.464 -24.114,-19.616 -31.185,-34.411 -2.72,11.189 7.318,18.814 11.291,26.883 -10.354,-9.163 -21.475,-20.718 -21.507,-37.637 -0.04,-20.929 18.585,-35.865 33.335,-44.089 5.622,-3.133 11.987,-6.666 18.283,-5.914 z" data-playerfill="true" fill-rule="evenodd" clip-rule="evenodd"></path><path d="m 293.908,118.04 c 4.188,2.803 7.726,6.254 9.141,11.829 -4.068,-2.667 -11.092,-4.897 -9.141,-11.829 z" fill-opacity="0" fill-rule="evenodd" clip-rule="evenodd"></path><path d="m 196.053,222.885 c 8.302,6.394 10.14,19.252 18.818,25.271 -0.873,4.504 -0.866,9.887 -2.151,13.979 -0.624,0.451 -1.441,0.709 -2.688,0.538 -1.307,4.301 -2.412,11.496 -1.076,16.668 3.982,0.218 4.654,-2.874 4.839,-6.452 8.037,-7.009 20.839,-21.181 35.486,-12.904 -14.3,0.475 -27.609,4.544 -26.883,18.28 8.697,-1.384 15.773,-8.125 25.808,-4.839 -8.458,4.806 -20.912,5.613 -23.658,16.13 10.764,3.754 26.719,2.315 30.11,13.442 -6.49,-4.084 -15.528,-5.62 -25.808,-5.915 -1.794,1.79 -1.988,5.181 -4.302,6.452 -7.068,-1.893 -15.876,-2.045 -20.969,-5.914 0.188,-1.783 3.099,-0.844 4.839,-1.075 -8.462,-11.61 -19.338,-20.808 -20.431,-39.787 2.083,2.396 3.752,5.209 6.452,6.989 -1.611,-10.332 -5.327,-21.041 -4.302,-32.26 2.631,0.595 2.493,3.959 3.226,6.452 2.254,-3.662 0.834,-10.996 2.69,-15.055 z" data-playerfill="true" fill-rule="evenodd" clip-rule="evenodd"></path><path d="m 357.354,268.587 c -5.271,-1.182 -9.542,-3.362 -14.518,-4.839 10.667,15.858 23.962,33.748 26.884,59.144 -5.729,-3.913 -8.629,-16.097 -15.593,-20.97 3.354,37.382 -9.446,65.093 -30.109,81.726 3.572,-8.794 10.304,-14.43 9.679,-27.421 -10.894,7.566 -20.994,15.926 -40.325,15.055 10.261,-5.694 21.705,-9.216 30.646,-16.668 13.808,-11.506 25.881,-30.04 25.271,-52.153 -1.018,-36.893 -31.514,-49.514 -58.605,-61.832 -0.088,-0.625 0.119,-0.957 0.538,-1.075 27.338,2.235 51.562,12.236 66.132,29.033 z" data-playerfill="true" fill-rule="evenodd" clip-rule="evenodd"></path><path d="m 288.532,148.688 c -1.27,2.895 1.907,6.128 2.15,9.678 0.113,1.652 -0.994,3.466 -0.538,4.839 1.216,3.654 4.898,2.499 5.915,5.915 -20.971,2.587 -35.734,-10.071 -44.627,-23.12 7.108,2.39 11.058,7.94 18.818,9.678 -0.055,-3.888 -2.631,-5.255 -2.15,-9.678 4.376,3.51 5.226,10.546 11.291,12.366 2.607,-4.567 0.202,-12.983 -0.538,-17.743 -4.62,-3.803 -11.977,-4.87 -13.979,-11.291 4.589,0.608 6.07,4.325 11.291,4.302 0.454,-13.729 -22.25,-8.927 -24.733,-21.507 1.942,0.208 3.588,0.713 4.839,1.613 -1.217,-2.91 -6.132,-6.768 -9.14,-9.678 -19.139,-1.943 -32.725,5.588 -46.239,5.914 8.295,-14.645 25.321,-20.56 46.777,-22.044 -7.456,-13.335 -20.366,-25.874 -25.808,-43.014 2.08,-0.76 3.247,2.328 4.301,3.764 9.199,12.525 19.143,27.703 31.185,37.637 -2.864,-18.403 -1.269,-40.246 9.14,-50.003 -5.963,12.566 -5.004,37.978 1.613,48.928 4.622,-12.404 8.239,-25.813 20.432,-30.647 -2.364,6.079 -10.596,11.849 -11.829,20.431 -1.381,9.611 1.087,17.83 6.452,23.12 2.416,-6.366 0.692,-16.871 4.302,-22.044 1.541,9.928 2.191,20.748 7.527,26.883 5.527,-8.104 8.35,-21.746 16.667,-25.271 -3.437,11.511 -9.583,18.92 -8.064,31.185 1.288,10.409 9.24,22.229 15.055,27.958 2.418,2.383 10.768,5.731 11.291,9.141 0.544,3.544 -3.684,5.842 -4.839,8.603 -2.573,6.144 -0.596,12.258 -2.151,18.281 -4.569,-4.033 -2.41,-14.795 -5.914,-19.894 -2.815,-0.486 -2.023,2.636 -4.839,2.15 -6.089,-6.995 -11.997,-14.169 -18.818,-20.431 -1.349,0.802 -1.888,2.414 -2.688,3.764 7.73,9.104 11.504,20.583 17.743,30.647 3.326,5.366 7.73,10.178 11.291,15.592 3.521,5.355 7.255,10.374 10.753,15.592 -4.582,-3.48 -7.902,-8.502 -11.828,-13.441 -3.795,-4.774 -8.569,-8.58 -12.366,-13.442 -6.225,-7.97 -8.048,-20.043 -17.745,-24.733 z m -25.27,-36.024 c -0.935,1.216 -3.803,0.499 -4.302,2.151 1.415,0.557 3.3,0.643 5.377,0.538 2.172,-1.947 1.524,-7.588 -1.075,-9.141 0,2.15 0,4.301 0,6.452 z m 39.787,17.205 c -1.415,-5.575 -4.953,-9.026 -9.141,-11.829 -1.951,6.932 5.073,9.162 9.141,11.829 z" data-playerfill="true" fill-rule="evenodd" clip-rule="evenodd"></path><path d="m 312.189,258.909 c 14.232,10.422 29.512,28.838 27.421,54.304 -2.314,28.189 -29.245,50.018 -58.605,52.154 -15.459,1.125 -28.979,-0.753 -40.863,-4.302 -6.124,-1.828 -12.88,-3.723 -16.668,-8.064 6.263,-1.981 16.122,-0.366 20.432,-4.302 -12.581,-4.267 -32.448,-1.246 -41.938,-8.603 3.944,-2.149 12.551,0.364 14.517,-3.764 -2.866,-4.918 -9.122,-4.659 -13.441,-4.302 -15.306,1.269 -32.027,16.142 -33.873,31.723 -3.46,29.2 18.003,47.679 45.702,45.164 10.133,-0.92 18.401,-5.49 27.958,-8.064 -9.756,10.57 -32.167,15.001 -51.616,10.753 2.599,6.524 14.458,9.058 24.732,9.678 18.012,1.088 35.729,-5.48 49.465,-8.603 -11.149,10.895 -33.801,10.288 -50.003,16.13 6.945,4.585 17.034,3.798 27.421,4.839 37.516,3.763 64.923,-10.672 80.65,-31.185 -0.911,-1.221 -3.59,0.317 -4.302,1.075 -0.023,-1.731 5.679,-4.951 8.065,-4.301 -4.836,11.356 -15.681,20.358 -26.346,27.421 -18.439,12.211 -40.379,16.917 -74.198,14.517 4.234,4.463 10.866,7.886 17.743,11.291 6.771,3.354 14.354,5.252 20.969,8.603 -35.785,-1.134 -51.34,-22.498 -76.886,-33.872 0.805,8.964 8.459,14.545 14.517,19.894 6.274,5.539 13.911,9.786 19.356,15.592 -34.405,-16.136 -60.042,-41.038 -61.832,-89.79 -2.536,0.167 -3.075,5.15 -4.839,4.301 0.429,-14.088 7.855,-21.179 9.678,-33.873 3.95,-4.652 8.697,-8.508 13.441,-12.366 0.133,-1.812 -3.216,-1.559 -1.613,-3.226 4.411,-2.399 10.726,-2.896 15.592,-4.839 -1.15,-2.076 -4.81,-1.643 -6.452,-3.227 8.667,-2.974 19.958,0.373 27.421,2.151 0.696,-1.789 -2.86,-3.938 -3.226,-6.452 8.894,2.576 13.495,9.445 20.969,13.441 0.184,-3.769 -2.597,-4.572 -2.688,-8.065 11.935,4.375 16.922,15.696 26.345,22.582 -1.464,-5.705 -5.625,-8.712 -6.989,-14.517 13.027,6.149 21.377,16.977 33.873,23.657 -1.246,-6.821 -7.19,-13.598 -10.754,-19.894 11.049,1.498 18.476,11.274 27.959,16.13 1.102,-6.898 -6.645,-12.291 -6.989,-17.743 9.642,2.188 17.21,6.447 25.271,10.216 -0.869,-5.073 -11.175,-8.146 -12.367,-12.904 6.142,-1.207 12.552,-2.145 18.281,-3.764 -2.071,-2.051 -7.505,-0.739 -9.678,-2.688 7.03,-6.77 17.252,-10.349 18.817,-22.582 -5.073,1.02 -6.64,5.547 -11.828,6.451 2.384,-6.421 6.481,-13.918 4.839,-22.581 -1.68,-1.818 -2.132,2.138 -4.301,1.612 1.301,-12.946 -4.976,-18.319 -9.139,-25.806 z" data-playerfill="true" fill-rule="evenodd" clip-rule="evenodd"></path></g></symbol><use href="#SvgjsSymbol1002" x="25" y="25" transform="matrix(0.75,0,0,0.75,6.25,6.25)"></use><text x="0" y="192.1015625" svgjs:data="{&quot;leading&quot;:&quot;1.3&quot;}">dragon</text></svg><svg width="200" height="200" x="600" y="5"><symbol viewBox="-6.2550000100000025 -39.689998 80 80" id="SvgjsSymbol1003"><g><rect width="66.07" height="21.700001" x="0.70999998" y="17.610001" stroke-width="1" stroke="black" fill="none" data-playerfill="true"></rect><polygon points="61.74,0.5 6.78,0.5 0.71,17.61 66.78,17.61" stroke-width="1" stroke="black" fill="none" data-playerfill="true"></polygon></g></symbol><use href="#SvgjsSymbol1003" x="25" y="25" transform="matrix(0.75,0,0,0.75,6.25,6.25)"></use><text x="0" y="192.1015625" svgjs:data="{&quot;leading&quot;:&quot;1.3&quot;}">house</text></svg><svg width="200" height="200" x="800" y="5"><symbol viewBox="-7.1000000000000005 -21.619999999999997 80 80" id="SvgjsSymbol1004"><g><polygon points="64.94,33.45 33.35,13.89 33.35,0.93 61.38,19.52" stroke-width="1" stroke="black" fill="none" data-playerfill="true"></polygon><polygon points="0.86,33.45 33.35,13.89 33.35,0.93 5.38,18.86" stroke-width="1" stroke="black" fill="none" data-playerfill="true"></polygon><polygon points="64.94,57.38 64.94,33.45 33.35,13.89 0.86,33.45 0.86,57.38" stroke-width="1" stroke="black" fill="none" data-playerfill="true"></polygon></g></symbol><use href="#SvgjsSymbol1004" x="25" y="25" transform="matrix(0.75,0,0,0.75,6.25,6.25)"></use><text x="0" y="192.1015625" svgjs:data="{&quot;leading&quot;:&quot;1.3&quot;}">palace</text></svg><svg width="200" height="200" x="1000" y="5"><symbol viewBox="-2.5 -2.5 105 105" id="SvgjsSymbol1005"><circle r="50" cx="50" cy="50" data-playerfill="true" fill="#ffffff" stroke-width="5" stroke="#000000"></circle></symbol><use href="#SvgjsSymbol1005" x="25" y="25" transform="matrix(0.75,0,0,0.75,6.25,6.25)"></use><text x="0" y="192.1015625" svgjs:data="{&quot;leading&quot;:&quot;1.3&quot;}">piece</text></svg><svg width="200" height="200" x="0" y="205"><symbol viewBox="0 0 100 100" id="SvgjsSymbol1006"><circle r="50" cx="50" cy="50" data-playerfill="true" fill="#ffffff" stroke-opacity="0" stroke-width="0" stroke="#000000"></circle></symbol><use href="#SvgjsSymbol1006" x="25" y="25" transform="matrix(0.75,0,0,0.75,6.25,6.25)"></use><text x="0" y="192.1015625" svgjs:data="{&quot;leading&quot;:&quot;1.3&quot;}">piece-borderless</text></svg><svg width="200" height="200" x="200" y="205"><symbol viewBox="-2.5 -2.5 105 105" id="SvgjsSymbol1007"><circle r="47.5" cx="50" cy="50" data-playerfill="true" fill="#ffffff" stroke-width="5" stroke="#000000"></circle><circle r="35" cx="50" cy="50" fill="none" stroke-width="10" stroke="#000000"></circle><circle r="5" cx="50" cy="50" fill="none" stroke-width="1.25" stroke="#000000"></circle></symbol><use href="#SvgjsSymbol1007" x="25" y="25" transform="matrix(0.75,0,0,0.75,6.25,6.25)"></use><text x="0" y="192.1015625" svgjs:data="{&quot;leading&quot;:&quot;1.3&quot;}">piece-chariot</text></svg><svg width="200" height="200" x="400" y="205"><symbol viewBox="-2.5 -2.5 105 105" id="SvgjsSymbol1008"><circle r="47.5" cx="50" cy="50" data-playerfill="true" fill="#ffffff" stroke-width="5" stroke="#000000"></circle><circle r="35" cx="50" cy="50" fill="none" stroke-dasharray="10" stroke-width="10" stroke="#000000"></circle></symbol><use href="#SvgjsSymbol1008" x="25" y="25" transform="matrix(0.75,0,0,0.75,6.25,6.25)"></use><text x="0" y="192.1015625" svgjs:data="{&quot;leading&quot;:&quot;1.3&quot;}">piece-horse</text></svg><svg width="200" height="200" x="600" y="205"><symbol viewBox="-1 -1 102 102" id="SvgjsSymbol1009"><rect width="100" height="100" data-playerfill="true" fill="#ffffff" stroke-width="2" stroke="#000000" x="0" y="0"></rect></symbol><use href="#SvgjsSymbol1009" x="25" y="25" transform="matrix(0.75,0,0,0.75,6.25,6.25)"></use><text x="0" y="192.1015625" svgjs:data="{&quot;leading&quot;:&quot;1.3&quot;}">piece-square</text></svg><svg width="200" height="200" x="800" y="205"><symbol viewBox="0 0 100 100" id="SvgjsSymbol1010"><rect width="100" height="100" data-playerfill="true" fill="#ffffff" stroke-opacity="0" stroke-width="0" stroke="#000000" x="0" y="0"></rect></symbol><use href="#SvgjsSymbol1010" x="25" y="25" transform="matrix(0.75,0,0,0.75,6.25,6.25)"></use><text x="0" y="192.1015625" svgjs:data="{&quot;leading&quot;:&quot;1.3&quot;}">piece-square-borderless</text></svg><svg width="200" height="200" x="1000" y="205"><symbol viewBox="0 0 180 180" id="SvgjsSymbol1011"><polygon points="90,2.5 40,177.5 140,177.5" data-playerfill="true" stroke-width="5" stroke="#000000" fill="#ffffff"></polygon></symbol><use href="#SvgjsSymbol1011" x="25" y="25" transform="matrix(0.75,0,0,0.75,6.25,6.25)"></use><text x="0" y="192.1015625" svgjs:data="{&quot;leading&quot;:&quot;1.3&quot;}">piece-triangle</text></svg><svg width="200" height="200" x="0" y="405"><symbol viewBox="0 0 180 180" id="SvgjsSymbol1012"><polygon points="90,2.5 40,177.5 140,177.5" data-playerfill="true" stroke-width="5" stroke="#000000" fill="#ffffff"></polygon><circle r="16.666666666666668" cx="90" cy="119.16666666666667" fill="#000000"></circle></symbol><use href="#SvgjsSymbol1012" x="25" y="25" transform="matrix(0.75,0,0,0.75,6.25,6.25)"></use><text x="0" y="192.1015625" svgjs:data="{&quot;leading&quot;:&quot;1.3&quot;}">piece-triangle-dot</text></svg><svg width="200" height="200" x="200" y="405"><symbol viewBox="0 0 421 421" id="SvgjsSymbol1013"><g><circle r="200" cx="210.5" cy="210.5" stroke-width="5" stroke="black" fill="none" data-playerfill="true"></circle><path d="M255.55 405.36c-35.749 7.858-73.367 6.139-108.22-5.092m167.92-19.631c-49.05 27.441-109.02 32.427-162.93 18.068-23.251-5.986-45.237-16.405-64.686-30.473m268.16-20.862c-35.076 32.734-83.252 47.924-130.47 50.353-52.85 2.354-107.76-10.846-150.17-43.395-9.533-7.546-17.938-16.147-25.736-25.455m338.45-26.274c-19.622 33.291-53.486 55.792-89.458 68.217-48.883 17.101-102.98 18.343-152.96 5.15-41.172-10.98-81.07-32.744-106.73-67.507-6.847-9.275-11.85-19.34-16.324-29.931m379.59-12.008c-11.304 28.949-33.936 52.201-60.396 67.913-41.8 25.205-91.676 34.761-140.09 32.718-47.849-2.427-95.914-16.694-134.63-45.515-25.398-19.504-46.513-46.428-53.193-78.283l-.97-3.644m396.18-11.924c-4.841 23.535-17.54 44.808-34.672 61.489-32.824 31.618-77.391 48.446-122.03 54.483-51.714 6.666-105.74-.631-152.71-23.702-31.582-15.7-60.497-39.497-76.358-71.505-7.839-15.258-11.467-32.063-12.037-49.141m395.46-28.104c3.44 21.926-.457 44.727-11.272 64.133-18.271 33.084-51.067 55.847-85.775 69.187-51.58 19.912-109.46 21.782-162.79 7.924-40.561-10.931-79.692-31.96-105.93-65.454-17.927-23.385-28.042-53.574-23.504-83.085l.397-4.174m377.4-25.704c8.345 24.193 6.99 51.682-5.187 74.343-15.488 31.155-45.102 52.817-76.348 66.587-52.527 22.102-112.67 24.811-167.36 9.284-39.276-11.16-77.313-32.762-100.87-66.866-18.198-25.643-24.767-59.756-14.595-89.819 1.709-7.223 5.807-13.596 8.632-20.413m328.27-20.447c15.439 20.262 24.25 46.355 19.699 71.838-5.751 34.641-31.935 62.235-61.625 79.061-46.445 26.056-102.51 32.539-154.46 22.61-43.271-8.265-86.32-29.103-112.53-65.559-17.491-24.374-23.858-56.955-13.685-85.538 5.591-17.098 16.356-31.894 28.837-44.671m256.16-14.371c23.24 17.696 42.024 44.313 42.08 74.456.514 31.152-19.085 59.055-43.712 76.573-43.524 30.486-100.05 38.52-151.65 28.967-39.963-7.638-80.244-26.952-103.31-61.639-17.376-24.994-19.944-59.526-5.06-86.295 13.022-25.355 36.986-43.271 62.394-55.067m141.61-6.799c32.579 11.124 64.873 32.846 76.207 66.84 8.96 26.974-1.601 57.232-22.053 76.067-32.052 30.781-78.77 41.655-122.17 38.963-41.496-3.024-84.994-19.351-109.95-54.18-15.735-22.005-18.498-52.761-4.818-76.434 19.035-34.366 58.007-52.474 95.581-57.934 42.845-5.775 90.425 3.075 122.46 33.813 17.07 16.814 25.956 43.305 16.504 66.205-12.519 31.554-45.874 48.939-77.66 55.14-42.789 7.838-91.506-1.137-122.69-33.208-17.052-17.801-23.676-46.173-11.423-68.384 16.297-31.279 52.682-46.416 86.407-48.77 33.832-2.368 71.755 7.153 93.237 35.138 12.854 16.914 12.131 42.077-2.127 57.928-23.35 27.197-63.264 34.301-97.119 27.277-25.265-5.291-52.663-21.167-58.129-48.307-4.853-24.18 14.572-45.76 35.8-54.177C200.24 23.9 239.16 26.002 262.876 49.782c12.424 12.344 12.531 33.848-.35 45.922-23.364 22.258-64.275 23.307-88.762 2.303-12.354-10.191-13.797-30.612-1.233-41.251 17.168-15.857 48.004-17.888 64.956-.751 9.527 9.354 2.823 25.231-9 28.67-11.478 4.756-30.15 3.256-34.358-10.471-1.632-9.618 14.527-15.942 19.14-7.483.08 1.48-1.48 2.402-2.803 2.362" stroke-width="2" stroke="black" fill="none"></path></g></symbol><use href="#SvgjsSymbol1013" x="25" y="25" transform="matrix(0.75,0,0,0.75,6.25,6.25)"></use><text x="0" y="192.1015625" svgjs:data="{&quot;leading&quot;:&quot;1.3&quot;}">sphere-spiral</text></svg><svg width="200" height="200" x="400" y="405"><symbol viewBox="-7.279999999999999 -0.540000000000012 80 80" id="SvgjsSymbol1014"><g><polygon points="32.5,0.9 60.05,18.12 64.61,32.12 32.5,12.23" stroke-width="1" stroke="black" fill="none" data-playerfill="true"></polygon><polygon points="32.5,0.9 4.94,17.46 0.83,32.12 32.5,12.23" stroke-width="1" stroke="black" fill="none" data-playerfill="true"></polygon><polygon points="64.61,32.12 32.5,12.23 0.83,32.12 0.83,78.46 64.61,78.46" stroke-width="1" stroke="black" fill="none" data-playerfill="true"></polygon></g></symbol><use href="#SvgjsSymbol1014" x="25" y="25" transform="matrix(0.75,0,0,0.75,6.25,6.25)"></use><text x="0" y="192.1015625" svgjs:data="{&quot;leading&quot;:&quot;1.3&quot;}">tower</text></svg><svg width="200" height="200" x="600" y="405"><symbol viewBox="-1 -1 102 102" id="SvgjsSymbol1016"><symbol viewBox="-1 -1 52 52" id="SvgjsSymbol1015"><rect width="50" height="50" fill="none" data-playerfill="true" stroke-width="1" stroke="black"></rect></symbol><use href="#SvgjsSymbol1015" width="50" height="50"></use></symbol><use href="#SvgjsSymbol1016" x="25" y="25" transform="matrix(0.75,0,0,0.75,6.25,6.25)"></use><text x="0" y="192.1015625" svgjs:data="{&quot;leading&quot;:&quot;1.3&quot;}">wyke-1</text></svg><svg width="200" height="200" x="800" y="405"><symbol viewBox="-1 -1 102 102" id="SvgjsSymbol1018"><symbol viewBox="-1 -1 52 52" id="SvgjsSymbol1017"><rect width="50" height="50" fill="none" data-playerfill="true" stroke-width="1" stroke="black"></rect></symbol><use href="#SvgjsSymbol1017" width="50" height="50"></use><use href="#SvgjsSymbol1017" width="50" height="50" x="50"></use></symbol><use href="#SvgjsSymbol1018" x="25" y="25" transform="matrix(0.75,0,0,0.75,6.25,6.25)"></use><text x="0" y="192.1015625" svgjs:data="{&quot;leading&quot;:&quot;1.3&quot;}">wyke-2</text></svg><svg width="200" height="200" x="1000" y="405"><symbol viewBox="-1 -1 102 102" id="SvgjsSymbol1020"><symbol viewBox="-1 -1 52 52" id="SvgjsSymbol1019"><rect width="50" height="50" fill="none" data-playerfill="true" stroke-width="1" stroke="black"></rect></symbol><use href="#SvgjsSymbol1019" width="50" height="50"></use><use href="#SvgjsSymbol1019" width="50" height="50" x="50"></use><use href="#SvgjsSymbol1019" width="50" height="50" y="50"></use></symbol><use href="#SvgjsSymbol1020" x="25" y="25" transform="matrix(0.75,0,0,0.75,6.25,6.25)"></use><text x="0" y="192.1015625" svgjs:data="{&quot;leading&quot;:&quot;1.3&quot;}">wyke-3</text></svg><svg width="200" height="200" x="0" y="605"><symbol viewBox="-1 -1 102 102" id="SvgjsSymbol1022"><symbol viewBox="-1 -1 52 52" id="SvgjsSymbol1021"><rect width="50" height="50" fill="none" data-playerfill="true" stroke-width="1" stroke="black"></rect></symbol><use href="#SvgjsSymbol1021" width="50" height="50"></use><use href="#SvgjsSymbol1021" width="50" height="50" x="50"></use><use href="#SvgjsSymbol1021" width="50" height="50" y="50"></use><use href="#SvgjsSymbol1021" width="50" height="50" x="50" y="50"></use></symbol><use href="#SvgjsSymbol1022" x="25" y="25" transform="matrix(0.75,0,0,0.75,6.25,6.25)"></use><text x="0" y="192.1015625" svgjs:data="{&quot;leading&quot;:&quot;1.3&quot;}">wyke-4</text></svg><svg width="200" height="200" x="200" y="605"><symbol viewBox="-1 -1 102 102" id="SvgjsSymbol1024"><symbol viewBox="-1 -1 52 52" id="SvgjsSymbol1023"><rect width="50" height="50" fill="none" data-playerfill="true" stroke-width="1" stroke="black"></rect></symbol><use href="#SvgjsSymbol1023" width="50" height="50"></use><use href="#SvgjsSymbol1023" width="50" height="50" x="50"></use><use href="#SvgjsSymbol1023" width="50" height="50" y="50"></use><use href="#SvgjsSymbol1023" width="50" height="50" x="50" y="50"></use><use href="#SvgjsSymbol1023" width="37.5" height="37.5" x="6.25" y="6.25"></use></symbol><use href="#SvgjsSymbol1024" x="25" y="25" transform="matrix(0.75,0,0,0.75,6.25,6.25)"></use><text x="0" y="192.1015625" svgjs:data="{&quot;leading&quot;:&quot;1.3&quot;}">wyke-5</text></svg><svg width="200" height="200" x="400" y="605"><symbol viewBox="-1 -1 102 102" id="SvgjsSymbol1026"><symbol viewBox="-1 -1 52 52" id="SvgjsSymbol1025"><rect width="50" height="50" fill="none" data-playerfill="true" stroke-width="1" stroke="black"></rect></symbol><use href="#SvgjsSymbol1025" width="50" height="50"></use><use href="#SvgjsSymbol1025" width="50" height="50" x="50"></use><use href="#SvgjsSymbol1025" width="50" height="50" y="50"></use><use href="#SvgjsSymbol1025" width="50" height="50" x="50" y="50"></use><use href="#SvgjsSymbol1025" width="37.5" height="37.5" x="6.25" y="6.25"></use><use href="#SvgjsSymbol1025" width="37.5" height="37.5" x="56.25" y="6.25"></use></symbol><use href="#SvgjsSymbol1026" x="25" y="25" transform="matrix(0.75,0,0,0.75,6.25,6.25)"></use><text x="0" y="192.1015625" svgjs:data="{&quot;leading&quot;:&quot;1.3&quot;}">wyke-6</text></svg><svg width="200" height="200" x="600" y="605"><symbol viewBox="-1 -1 102 102" id="SvgjsSymbol1028"><symbol viewBox="-1 -1 52 52" id="SvgjsSymbol1027"><rect width="50" height="50" fill="none" data-playerfill="true" stroke-width="1" stroke="black"></rect></symbol><use href="#SvgjsSymbol1027" width="50" height="50"></use><use href="#SvgjsSymbol1027" width="50" height="50" x="50"></use><use href="#SvgjsSymbol1027" width="50" height="50" y="50"></use><use href="#SvgjsSymbol1027" width="50" height="50" x="50" y="50"></use><use href="#SvgjsSymbol1027" width="37.5" height="37.5" x="6.25" y="6.25"></use><use href="#SvgjsSymbol1027" width="37.5" height="37.5" x="56.25" y="6.25"></use><use href="#SvgjsSymbol1027" width="37.5" height="37.5" x="6.25" y="56.25"></use></symbol><use href="#SvgjsSymbol1028" x="25" y="25" transform="matrix(0.75,0,0,0.75,6.25,6.25)"></use><text x="0" y="192.1015625" svgjs:data="{&quot;leading&quot;:&quot;1.3&quot;}">wyke-7</text></svg></svg><svg id="sheet_chess" width="1200" height="1435" x="0" y="900"><svg><text x="0" y="17.1015625" svgjs:data="{&quot;leading&quot;:&quot;1.3&quot;}">Sheet Name: chess</text></svg><svg width="200" height="200" x="0" y="5"><symbol viewBox="-3819.5 -3813.9999999999995 3544 3544" id="SvgjsSymbol1029"><path d="M1756 3140l291 -290l291 291l-290 291zM1374 3141l673 673l674 -674l-673 -673zM1436 1980v-1432h1223v1432h-1223zM1159 2252h1777v-1982h-1777v1982z" transform="matrix(-1,1.2246467991473532e-16,-1.2246467991473532e-16,-1,0,0)" data-playerfill="true" fill="#000000"></path></symbol><use href="#SvgjsSymbol1029" x="25" y="25" transform="matrix(0.75,0,0,0.75,6.25,6.25)"></use><text x="0" y="192.1015625" svgjs:data="{&quot;leading&quot;:&quot;1.3&quot;}">chess-bishop-outline-line</text></svg><svg width="200" height="200" x="200" y="5"><symbol viewBox="-1786 -1695.9999999999998 1525 1525" id="SvgjsSymbol1030"><path d="M1639 922v354l-120 64l-174 -93l124 -66v-259l-1 -512h-888v511v253l630 333l-186 99l-615 -332v-353v-682h1230v683zM341 921v410l684 365l347 -185l-725 -383v-207v-263v-180h754v184v259v207l-222 117l345 185l182 -99v-409v-262v-489h-1365v487v263z" transform="matrix(-1,1.2246467991473532e-16,-1.2246467991473532e-16,-1,0,0)" data-playerfill="true" fill="#000000"></path></symbol><use href="#SvgjsSymbol1030" x="25" y="25" transform="matrix(0.75,0,0,0.75,6.25,6.25)"></use><text x="0" y="192.1015625" svgjs:data="{&quot;leading&quot;:&quot;1.3&quot;}">chess-bishop-outline-millenia</text></svg><svg width="200" height="200" x="400" y="5"><symbol viewBox="60 60 880 880" id="SvgjsSymbol1031"><path d="M500 100q-8 0 -14 6t-6 14t6 14t14 6t14 -6t6 -14t-6 -14t-14 -6zM500 900q8 0 14 -6t6 -14t-6 -14t-14 -6t-14 6t-6 14t6 14t14 6zM480 823q11 -3 20 -3q11 0 20 3l23 -23l-140 -140l77 -77l140 140l134 -134q12 -12 12 -20q0 -9 -12 -9h-222l-32 -32l-32 32h-222q-12 0 -12 9q0 8 12 20zM520 177q-9 3 -20 3q-9 0 -20 -3l-23 23l140 140l-77 77l-140 -140l-134 134q-12 12 -12 20q0 9 12 9h222l32 32l32 -32h222q12 0 12 -9q0 -8 -12 -20zM237 520h215l20 -20l-20 -20h-215l-20 20zM763 480h-215l-20 20l20 20h215l20 -20zM449 151q-9 -13 -9 -31q0 -25 17.5 -42.5t42.5 -17.5t42.5 17.5t17.5 42.5q0 18 -9 31l232 232q30 29 30 56q0 14 -9 25l36 36l-36 37q9 10 9 24q0 27 -30 56l-163 163l-140 -140l-20 20l140 140l-49 49q9 14 9 31q0 25 -17.5 42.5t-42.5 17.5t-42.5 -17.5t-17.5 -42.5q0 -17 9 -31l-232 -232q-30 -30 -30 -56q0 -14 9 -25l-36 -36l36 -36q-9 -10 -9 -24q0 -27 30 -57l163 -163l140 140l20 -20l-140 -140z" data-playerfill="true" fill="#000000"></path></symbol><use href="#SvgjsSymbol1031" x="25" y="25" transform="matrix(0.75,0,0,0.75,6.25,6.25)"></use><text x="0" y="192.1015625" svgjs:data="{&quot;leading&quot;:&quot;1.3&quot;}">chess-bishop-outline-montreal</text></svg><svg width="200" height="200" x="600" y="5"><symbol viewBox="-3819.5 -3813.9999999999995 3544 3544" id="SvgjsSymbol1032"><path d="M1159 2252h1777v-1982h-1777v1982zM1374 3141l673 673l674 -674l-673 -673z" transform="matrix(-1,1.2246467991473532e-16,-1.2246467991473532e-16,-1,0,0)" data-playerfill="true" stroke-width="5" stroke="#000000" fill="#000000"></path></symbol><use href="#SvgjsSymbol1032" x="25" y="25" transform="matrix(0.75,0,0,0.75,6.25,6.25)"></use><text x="0" y="192.1015625" svgjs:data="{&quot;leading&quot;:&quot;1.3&quot;}">chess-bishop-solid-line</text></svg><svg width="200" height="200" x="800" y="5"><symbol viewBox="-1786 -1695.9999999999998 1525 1525" id="SvgjsSymbol1033"><path d="M341 921v410l684 365l347 -185l-725 -383v-207v-263v-180h754v184v259v207l-222 117l345 185l182 -99v-409v-262v-489h-1365v487v263z" transform="matrix(-1,1.2246467991473532e-16,-1.2246467991473532e-16,-1,0,0)" data-playerfill="true" stroke-width="5" stroke="#000000" fill="#000000"></path></symbol><use href="#SvgjsSymbol1033" x="25" y="25" transform="matrix(0.75,0,0,0.75,6.25,6.25)"></use><text x="0" y="192.1015625" svgjs:data="{&quot;leading&quot;:&quot;1.3&quot;}">chess-bishop-solid-millenia</text></svg><svg width="200" height="200" x="1000" y="5"><symbol viewBox="60 60 880 880" id="SvgjsSymbol1034"><path d="M780 380q41 41 41 66q0 13 -13 22l32 32l-32 32q13 9 13 23q0 24 -41 65l-140 140l-160 -160l-40 40l160 160l-49 49q9 14 9 31q0 25 -17.5 42.5t-42.5 17.5t-42.5 -17.5t-17.5 -42.5q0 -17 9 -31l-229 -229q-41 -41 -41 -65q0 -14 13 -23l-32 -32l32 -32q-13 -9 -13 -22q0 -25 41 -66l141 -139l159 159l40 -40l-159 -159l20 -20l29 -28q-10 -14 -10 -33q0 -25 17.5 -42.5t42.5 -17.5t42.5 17.5t17.5 42.5q0 18 -9 33zM460 500l-20 -20h-180l-20 20l20 20h180zM540 500l20 20h180l20 -20l-20 -20h-180zM500 900q8 0 14 -6t6 -14t-6 -14t-14 -6t-14 6t-6 14t6 14t14 6zM500 140q8 0 14 -6t6 -14t-6 -14t-14 -6t-14 6t-6 14t6 14t14 6z" data-playerfill="true" stroke-width="5" stroke="#000000" fill="#000000"></path></symbol><use href="#SvgjsSymbol1034" x="25" y="25" transform="matrix(0.75,0,0,0.75,6.25,6.25)"></use><text x="0" y="192.1015625" svgjs:data="{&quot;leading&quot;:&quot;1.3&quot;}">chess-bishop-solid-montreal</text></svg><svg width="200" height="200" x="0" y="205"><symbol viewBox="820 820 2456 2456" id="SvgjsSymbol1035"><path d="M825 1117l931 932l-930 931l-1 296l289 -2l933 -933l934 935h290v-297l-931 -931l931 -929v-299h-285l-938 936l-932 -936h-291v297z" data-playerfill="true" stroke-width="5" stroke="#000000" fill="#000000"></path></symbol><use href="#SvgjsSymbol1035" x="25" y="25" transform="matrix(0.75,0,0,0.75,6.25,6.25)"></use><text x="0" y="192.1015625" svgjs:data="{&quot;leading&quot;:&quot;1.3&quot;}">chess-ex-solid-line</text></svg><svg width="200" height="200" x="200" y="205"><symbol viewBox="322 323 1403 1403" id="SvgjsSymbol1036"><path d="M1024 878l-556 -555l-146 146l555 556l-555 555l146 146l555 -556l555 556l147 -147l-555 -555l555 -555l-146 -146z" data-playerfill="true" stroke-width="5" stroke="#000000" fill="#000000"></path></symbol><use href="#SvgjsSymbol1036" x="25" y="25" transform="matrix(0.75,0,0,0.75,6.25,6.25)"></use><text x="0" y="192.1015625" svgjs:data="{&quot;leading&quot;:&quot;1.3&quot;}">chess-ex-solid-millenia</text></svg><svg width="200" height="200" x="400" y="205"><symbol viewBox="-3903.0000000000005 -3902.9999999999995 3710 3710" id="SvgjsSymbol1037"><path d="M2048 3348h-612v271h477v207h270v-207h476v-271h-611zM2773 1844l622 954h-2698l626 -954h1450zM2936 1570h-1777l-966 1499h3710zM1913 2591h270v-471h-270v471zM1792 2120l-324 -1l-333 470h330zM2304 2120l330 471l327 -1l-323 -470h-334zM1436 1027v-479h1223v479 h-1223zM1159 1298h1777v-1028h-1777v1028z" transform="matrix(-1,1.2246467991473532e-16,-1.2246467991473532e-16,-1,0,0)" data-playerfill="true" fill="#000000"></path></symbol><use href="#SvgjsSymbol1037" x="25" y="25" transform="matrix(0.75,0,0,0.75,6.25,6.25)"></use><text x="0" y="192.1015625" svgjs:data="{&quot;leading&quot;:&quot;1.3&quot;}">chess-king-outline-line</text></svg><svg width="200" height="200" x="600" y="205"><symbol viewBox="-1876.5000000000002 -1877 1706.0000000000002 1706.0000000000002" id="SvgjsSymbol1038"><path d="M1470 855l-2 -445h-888v450l445 232zM1178 1399v-93l528 -282v-853h-1365v853l530 280v95h-291v307h291v171h307v-171h290v-307h-290zM1401 820l-374 199l-380 -199v-342h754v342zM1110 1264l-1 203h292v171h-292v171h-170v-171h-292v-171h292l-1 -205l-529 -284v-739 h1230v744z" transform="matrix(-1,1.2246467991473532e-16,-1.2246467991473532e-16,-1,0,0)" data-playerfill="true" fill="#000000"></path></symbol><use href="#SvgjsSymbol1038" x="25" y="25" transform="matrix(0.75,0,0,0.75,6.25,6.25)"></use><text x="0" y="192.1015625" svgjs:data="{&quot;leading&quot;:&quot;1.3&quot;}">chess-king-outline-millenia</text></svg><svg width="200" height="200" x="800" y="205"><symbol viewBox="60 60 880 880" id="SvgjsSymbol1039"><path d="M500 560q25 0 42.5 -17.5t17.5 -42.5t-17.5 -42.5t-42.5 -17.5t-42.5 17.5t-17.5 42.5t17.5 42.5t42.5 17.5zM500 600q-41 0 -70.5 -29.5t-29.5 -70.5t29.5 -70.5t70.5 -29.5t70.5 29.5t29.5 70.5t-29.5 70.5t-70.5 29.5zM320 500q0 -18 5 -40h-165v40v40h165q-5 -22 -5 -40zM342 415q25 -47 73 -74q-6 -50 -20.5 -95t-35.5 -77.5t-46.5 -50.5t-52.5 -18q-32 0 -61.5 12.5t-51.5 34.5t-34.5 51.5t-12.5 61.5q0 55 68.5 98t173.5 57zM658 415q106 -14 174 -57t68 -98q0 -32 -12.5 -61.5t-34.5 -51.5t-51.5 -34.5t-61.5 -12.5q-27 0 -52.5 18t-46.5 50.5t-35.5 77t-20.5 95.5q49 27 73 74zM880 500v80h-101q75 29 118 70.5t43 89.5q0 41 -15.5 77.5t-43 64t-64 43t-77.5 15.5q-48 0 -90 -43t-70 -117v100h-80h-80v-100q-27 74 -69.5 117t-90.5 43q-41 0 -77 -15.5t-64 -43t-43.5 -64t-15.5 -77.5q0 -48 43 -89.5t118 -70.5h-101v-80v-80h101q-75 -28 -118 -70t-43 -90q0 -41 15.5 -77t43.5 -64t64 -43.5t77 -15.5q48 0 90.5 43t69.5 117v-100h80h80v100q28 -74 70 -117t90 -43q41 0 77.5 15.5t64 43.5t43 64t15.5 77q0 48 -43 90t-118 70h101v80zM500 160h-40v124v40q26 -4 40 -4t40 4v-40v-124h-40zM680 500q0 18 -5 40h165v-40v-40h-165q5 22 5 40zM360 500q0 58 41 99t99 41t99 -41t41 -99t-41 -99t-99 -41t-99 41t-41 99zM500 840h40v-124v-40q-26 4 -40 4t-40 -4v40v124h40zM658 585q-24 47 -73 74q6 50 20.5 95t35.5 77.5t46.5 50.5t52.5 18q32 0 61.5 -12.5t51.5 -34.5t34.5 -51.5t12.5 -61.5q0 -55 -68 -98t-174 -57zM342 585q-105 14 -173.5 57t-68.5 98q0 32 12.5 61.5t34.5 51.5t51.5 34.5t61.5 12.5q27 0 52.5 -18t46.5 -50.5t35.5 -77t20.5 -95.5q-48 -27 -73 -74z" data-playerfill="true" fill="#000000"></path></symbol><use href="#SvgjsSymbol1039" x="25" y="25" transform="matrix(0.75,0,0,0.75,6.25,6.25)"></use><text x="0" y="192.1015625" svgjs:data="{&quot;leading&quot;:&quot;1.3&quot;}">chess-king-outline-montreal</text></svg><svg width="200" height="200" x="1000" y="205"><symbol viewBox="-3903.0000000000005 -3902.9999999999995 3710 3710" id="SvgjsSymbol1040"><path d="M2048 3348h-612v271h477v207h270v-207h476v-271h-611zM1159 1298h1777v-1028h-1777v1028zM2392 2096h369l356 518l-360 2zM1703 2096l-361 518h-363l367 -518h357zM1900 2616v-520h297v520h-297zM2936 1570h-1777l-966 1499h3710z" transform="matrix(-1,1.2246467991473532e-16,-1.2246467991473532e-16,-1,0,0)" data-playerfill="true" stroke-width="5" stroke="#000000" fill="#000000"></path></symbol><use href="#SvgjsSymbol1040" x="25" y="25" transform="matrix(0.75,0,0,0.75,6.25,6.25)"></use><text x="0" y="192.1015625" svgjs:data="{&quot;leading&quot;:&quot;1.3&quot;}">chess-king-solid-line</text></svg><svg width="200" height="200" x="0" y="405"><symbol viewBox="-1876.5000000000002 -1877 1706.0000000000002 1706.0000000000002" id="SvgjsSymbol1041"><path d="M1178 1399v-93l528 -282v-853h-1365v853l530 280v95h-291v307h291v171h307v-171h290v-307h-290zM1401 820l-374 199l-380 -199v-342h754v342z" transform="matrix(-1,1.2246467991473532e-16,-1.2246467991473532e-16,-1,0,0)" data-playerfill="true" stroke-width="5" stroke="#000000" fill="#000000"></path></symbol><use href="#SvgjsSymbol1041" x="25" y="25" transform="matrix(0.75,0,0,0.75,6.25,6.25)"></use><text x="0" y="192.1015625" svgjs:data="{&quot;leading&quot;:&quot;1.3&quot;}">chess-king-solid-millenia</text></svg><svg width="200" height="200" x="200" y="405"><symbol viewBox="60 60 880 880" id="SvgjsSymbol1042"><path d="M397 353q16 -11 31 -18q-19 -87 -65 -141t-103 -54q-50 0 -85 35t-35 85q0 57 54 103t141 66q5 -15 17 -32q-74 -11 -123 -49t-49 -88q0 -33 23.5 -56.5t56.5 -23.5q50 0 88 49t49 124zM500 600q-41 0 -70.5 -29.5t-29.5 -70.5t29.5 -70.5t70.5 -29.5t70.5 29.5t29.5 70.5t-29.5 70.5t-70.5 29.5zM665 429q87 -20 141 -66t54 -103q0 -50 -35 -85t-85 -35q-57 0 -103 54t-65 141q15 7 31 18q11 -75 49 -124t88 -49q33 0 56.5 23.5t23.5 56.5q0 50 -49 88t-123 49q12 17 17 32zM647 603q75 11 124 49t49 88q0 33 -23.5 56.5t-56.5 23.5q-50 0 -88 -49t-49 -124q-12 9 -31 18q19 87 65 141t103 54q50 0 85 -35t35 -85q0 -57 -54 -103t-141 -65q-9 19 -18 31zM397 647q-11 75 -49 124t-88 49q-33 0 -56.5 -23.5t-23.5 -56.5q0 -50 49 -88t124 -49q-9 -12 -18 -31q-86 19 -139.5 65t-53.5 103q0 49 35 84.5t83 35.5q57 0 103 -54t66 -141q-18 -8 -32 -18zM500 640q58 0 99 -41t41 -99t-41 -99t-99 -41t-99 41t-41 99t41 99t99 41zM440 811q-36 61 -82 95t-98 34q-41 0 -77 -15.5t-64 -43t-43.5 -64t-15.5 -77.5q0 -52 34 -98t95 -82h-69v-120h69q-61 -36 -95 -82t-34 -98q0 -41 15.5 -77t43.5 -64t64 -43.5t77 -15.5q52 0 98 34t82 95v-69h120v69q36 -61 82.5 -95t97.5 -34q41 0 77.5 15.5t64 43.5t43 64t15.5 77q0 52 -34 98t-95 82h69v120h-69q61 36 95 82t34 98q0 41 -15.5 77.5t-43 64t-64 43t-77.5 15.5q-51 0 -97.5 -34t-82.5 -95v69h-120v-69z" data-playerfill="true" stroke-width="5" stroke="#000000" fill="#000000"></path></symbol><use href="#SvgjsSymbol1042" x="25" y="25" transform="matrix(0.75,0,0,0.75,6.25,6.25)"></use><text x="0" y="192.1015625" svgjs:data="{&quot;leading&quot;:&quot;1.3&quot;}">chess-king-solid-montreal</text></svg><svg width="200" height="200" x="400" y="405"><symbol viewBox="-3819.5000000000005 -3819.9999999999995 3550 3550" id="SvgjsSymbol1043"><path d="M2014 2867q185 0 185 -185t-185 -185q-184 0 -184 185t184 185zM3031 1155h-271v734l-394 395l268 120l398 -399zM3562 549v-279h-2384l-2 278l549 1174l-767 -280l-431 924l1488 1042l-214 216l196 196l1565 -1576v-1695zM2095 1860l-612 -1312h1809l1 1587l-1075 1075 l-1341 -938l223 -479l1059 386l95 -260z" transform="matrix(-1,1.2246467991473532e-16,-1.2246467991473532e-16,-1,0,0)" data-playerfill="true" fill="#000000"></path></symbol><use href="#SvgjsSymbol1043" x="25" y="25" transform="matrix(0.75,0,0,0.75,6.25,6.25)"></use><text x="0" y="192.1015625" svgjs:data="{&quot;leading&quot;:&quot;1.3&quot;}">chess-knight-outline-line</text></svg><svg width="200" height="200" x="600" y="405"><symbol viewBox="-1791.0000000000002 -1706 1535.0000000000002 1535.0000000000002" id="SvgjsSymbol1044"><path d="M1639 1422v216h-1230v-171h911l-911 -485v-743h1230v748l-410 215zM1706 1706v-323l-334 -180l334 -179v-853h-1365v853l708 375h-708v307h1365zM1470 855l-2 -445h-888v450l445 232zM1024 1020l-377 -200v-342h754v342z" transform="matrix(-1,1.2246467991473532e-16,-1.2246467991473532e-16,-1,0,0)" data-playerfill="true" fill="#000000"></path></symbol><use href="#SvgjsSymbol1044" x="25" y="25" transform="matrix(0.75,0,0,0.75,6.25,6.25)"></use><text x="0" y="192.1015625" svgjs:data="{&quot;leading&quot;:&quot;1.3&quot;}">chess-knight-outline-millenia</text></svg><svg width="200" height="200" x="800" y="405"><symbol viewBox="40 40 920 920" id="SvgjsSymbol1045"><path d="M420 200q8 0 14 6t6 14t-6 14t-14 6t-14 -6t-6 -14t6 -14t14 -6zM580 800q-8 0 -14 -6t-6 -14t6 -14t14 -6t14 6t6 14t-6 14t-14 6zM468 440l32 32l32 -32h168l-104 -65q-34 16 -67 20.5t-49 4.5l-20 -40q10 0 32 -1.5t52.5 -9.5t53 -24.5t22.5 -44.5h60q45 -30 45 -60t-45 -60h-300v-60q-10 4 -32.5 16t-52.5 38.5t-52.5 68.5t-22.5 97q0 6 1 20.5t4.5 35t12 39t22.5 25.5h208zM532 560l-32 -32l-32 32h-168l104 65q34 -16 67 -20.5t49 -4.5l20 40q-10 0 -32 2t-52.5 9.5t-53 24.5t-22.5 44h-60q-45 30 -45 60t45 60h300v60q10 -4 32.5 -16t52.5 -38.5t52.5 -68.5t22.5 -97q0 -6 -1 -20.5t-4.5 -35t-12 -39t-22.5 -25.5h-208zM548 480l-20 20l20 20h212l20 -20l-20 -20h-212zM452 520l20 -20l-20 -20h-212l-20 20l20 20h212zM160 500l60 -60q-14 -7 -22.5 -25.5t-12 -39t-4.5 -35t-1 -20.5q0 -56 24.5 -104.5t62.5 -85t79 -59.5t74 -31v80h280q36 15 55.5 42t19.5 58t-19.5 58.5t-55.5 41.5h-60q0 14 -8 27l148 93l60 60l-60 60q14 7 22.5 25.5t12 39t4.5 35t1 20.5q0 56 -24.5 104.5t-62.5 85t-79 59.5t-74 31v-80h-280q-36 -14 -55.5 -41.5t-19.5 -58.5t19.5 -58t55.5 -42h60q0 -14 8 -27l-148 -93z" data-playerfill="true" fill="#000000"></path></symbol><use href="#SvgjsSymbol1045" x="25" y="25" transform="matrix(0.75,0,0,0.75,6.25,6.25)"></use><text x="0" y="192.1015625" svgjs:data="{&quot;leading&quot;:&quot;1.3&quot;}">chess-knight-outline-montreal</text></svg><svg width="200" height="200" x="1000" y="405"><symbol viewBox="-3819.5000000000005 -3819.9999999999995 3550 3550" id="SvgjsSymbol1046"><path d="M3113 1196l1 850l-398 398l-268 -119l394 -395v-734h271zM1953 2914q-170 0 -170 -170t170 -170q171 0 171 170t-171 170zM1627 3137q42 10 96 47q49 34 77 73l215 151l-214 216l196 196l1565 -1572v-1978l-2385 1v289l548 1162l-767 -280l-431 924z" transform="matrix(-1,1.2246467991473532e-16,-1.2246467991473532e-16,-1,0,0)" data-playerfill="true" stroke-width="5" stroke="#000000" fill="#000000"></path></symbol><use href="#SvgjsSymbol1046" x="25" y="25" transform="matrix(0.75,0,0,0.75,6.25,6.25)"></use><text x="0" y="192.1015625" svgjs:data="{&quot;leading&quot;:&quot;1.3&quot;}">chess-knight-solid-line</text></svg><svg width="200" height="200" x="0" y="605"><symbol viewBox="-1791.0000000000002 -1706 1535.0000000000002 1535.0000000000002" id="SvgjsSymbol1047"><path d="M1024 1020l-377 -200v-342h754v342zM1706 1706v-323l-334 -180l334 -179v-853h-1365v853l708 375h-708v307h1365z" transform="matrix(-1,1.2246467991473532e-16,-1.2246467991473532e-16,-1,0,0)" data-playerfill="true" stroke-width="5" stroke="#000000" fill="#000000"></path></symbol><use href="#SvgjsSymbol1047" x="25" y="25" transform="matrix(0.75,0,0,0.75,6.25,6.25)"></use><text x="0" y="192.1015625" svgjs:data="{&quot;leading&quot;:&quot;1.3&quot;}">chess-knight-solid-millenia</text></svg><svg width="200" height="200" x="200" y="605"><symbol viewBox="40 40 920 920" id="SvgjsSymbol1048"><path d="M631 347l149 93l60 60l-60 60q14 7 22.5 25.5t12 39t4.5 35t1 20.5q0 56 -24.5 104.5t-62.5 85t-79 59.5t-74 31v-80h-280q-36 -14 -55.5 -41.5t-19.5 -58.5t19.5 -58t55.5 -42h60q0 -13 9 -27l-149 -93l-60 -60l60 -60q-14 -7 -22.5 -25.5t-12 -39t-4.5 -35t-1 -20.5q0 -56 24.5 -104.5t62.5 -85t79 -59.5t74 -31v80h280q36 15 55.5 42t19.5 58t-19.5 58.5t-55.5 41.5h-60q0 14 -9 27zM460 360l20 40zM300 440q-14 -7 -22.5 -25.5t-12 -39t-4.5 -35t-1 -20.5q0 -48 17 -83t39.5 -56t39 -29.5t24.5 -11.5v-40q-10 4 -32.5 16t-52.5 38.5t-52.5 68.5t-22.5 97q0 6 1 20.5t4.5 35t12 39t22.5 25.5h40zM605 370l-20 -40q-23 14 -55.5 22t-69.5 8l20 40q37 0 69.5 -8t55.5 -22zM395 630l20 40q23 -14 55.5 -22t69.5 -8l-20 -40q-37 0 -69.5 8t-55.5 22zM740 560h-40q14 7 22.5 25.5t12 39t4.5 35t1 20.5q0 48 -17 83t-39.5 56t-39 30t-24.5 11v40q10 -4 32.5 -16t52.5 -38.5t52.5 -68.5t22.5 -97q0 -6 -1 -20.5t-4.5 -35t-12 -39t-22.5 -25.5zM420 200q-8 0 -14 6t-6 14t6 14t14 6t14 -6t6 -14t-6 -14t-14 -6zM580 800q8 0 14 -6t6 -14t-6 -14t-14 -6t-14 6t-6 14t6 14t14 6zM780 500l-20 -20h-200l-20 20l20 20h200zM220 500l20 20h200l20 -20l-20 -20h-200z" data-playerfill="true" stroke-width="5" stroke="#000000" fill="#000000"></path></symbol><use href="#SvgjsSymbol1048" x="25" y="25" transform="matrix(0.75,0,0,0.75,6.25,6.25)"></use><text x="0" y="192.1015625" svgjs:data="{&quot;leading&quot;:&quot;1.3&quot;}">chess-knight-solid-montreal</text></svg><svg width="200" height="200" x="400" y="605"><symbol viewBox="-3175.5 -2526 2256.0000000000005 2256.0000000000005" id="SvgjsSymbol1049"><path d="M1159 1298h1777v-1028h-1777v1028zM1436 1027v-479h1223v479h-1223zM1842 2255v-414h412v414h-412zM1572 2526h952v-956h-952v956z" transform="matrix(-1,1.2246467991473532e-16,-1.2246467991473532e-16,-1,0,0)" data-playerfill="true" stroke-width="5" stroke="#000000" fill="#000000"></path></symbol><use href="#SvgjsSymbol1049" x="25" y="25" transform="matrix(0.75,0,0,0.75,6.25,6.25)"></use><text x="0" y="192.1015625" svgjs:data="{&quot;leading&quot;:&quot;1.3&quot;}">chess-pawn-outline-line</text></svg><svg width="200" height="200" x="600" y="605"><symbol viewBox="-1706.0000000000002 -1462 1365.0000000000002 1365.0000000000002" id="SvgjsSymbol1050"><path d="M1470 855q-1 -111 -1.5 -222.5t-0.5 -222.5h-444h-444v224.5v225.5q111 57 222.5 115.5t222.5 116.5q111 -60 222 -119t223 -118zM1639 983l-612 326l-618 -331v-739h1230v744zM341 1024l686 364l679 -364v-853h-1365v853zM1025 1020q-95 -50 -189.5 -100t-188.5 -100 v-171.5v-170.5h376.5h377.5v170.5v171.5q-95 50 -189 100t-187 100z" transform="matrix(-1,1.2246467991473532e-16,-1.2246467991473532e-16,-1,0,0)" data-playerfill="true" fill="#000000"></path></symbol><use href="#SvgjsSymbol1050" x="25" y="25" transform="matrix(0.75,0,0,0.75,6.25,6.25)"></use><text x="0" y="192.1015625" svgjs:data="{&quot;leading&quot;:&quot;1.3&quot;}">chess-pawn-outline-millenia</text></svg><svg width="200" height="200" x="800" y="605"><symbol viewBox="280 280 440 440" id="SvgjsSymbol1051"><path d="M500 680q37 0 69.5 -14t57.5 -39t39 -57.5t14 -69.5t-14 -69.5t-39 -57.5t-57.5 -39t-69.5 -14t-69.5 14t-57.5 39t-39 57.5t-14 69.5t14 69.5t39 57.5t57.5 39t69.5 14zM500 600q41 0 70.5 -29.5t29.5 -70.5t-29.5 -70.5t-70.5 -29.5t-70.5 29.5t-29.5 70.5t29.5 70.5t70.5 29.5zM500 640q-58 0 -99 -41t-41 -99t41 -99t99 -41t99 41t41 99t-41 99t-99 41zM500 720q-45 0 -85 -17t-70.5 -47.5t-47.5 -70.5t-17 -85t17 -85t47.5 -70.5t70.5 -47.5t85 -17t85 17t70.5 47.5t47.5 70.5t17 85t-17 85t-47.5 70.5t-70.5 47.5t-85 17z" data-playerfill="true" fill="#000000"></path></symbol><use href="#SvgjsSymbol1051" x="25" y="25" transform="matrix(0.75,0,0,0.75,6.25,6.25)"></use><text x="0" y="192.1015625" svgjs:data="{&quot;leading&quot;:&quot;1.3&quot;}">chess-pawn-outline-montreal</text></svg><svg width="200" height="200" x="1000" y="605"><symbol viewBox="-3175.5 -2526 2256.0000000000005 2256.0000000000005" id="SvgjsSymbol1052"><path d="M1159 1298h1777v-1028h-1777v1028zM1572 2526h952v-956h-952v956z" transform="matrix(-1,1.2246467991473532e-16,-1.2246467991473532e-16,-1,0,0)" data-playerfill="true" fill="#000000"></path></symbol><use href="#SvgjsSymbol1052" x="25" y="25" transform="matrix(0.75,0,0,0.75,6.25,6.25)"></use><text x="0" y="192.1015625" svgjs:data="{&quot;leading&quot;:&quot;1.3&quot;}">chess-pawn-solid-line</text></svg><svg width="200" height="200" x="0" y="805"><symbol viewBox="-1706.0000000000002 -1462 1365.0000000000002 1365.0000000000002" id="SvgjsSymbol1053"><path d="M341 1024l686 364l679 -364v-853h-1365v853zM1025 1020l-378 -200v-342h754v342z" transform="matrix(-1,1.2246467991473532e-16,-1.2246467991473532e-16,-1,0,0)" data-playerfill="true" stroke-width="5" stroke="#000000" fill="#000000"></path></symbol><use href="#SvgjsSymbol1053" x="25" y="25" transform="matrix(0.75,0,0,0.75,6.25,6.25)"></use><text x="0" y="192.1015625" svgjs:data="{&quot;leading&quot;:&quot;1.3&quot;}">chess-pawn-solid-millenia</text></svg><svg width="200" height="200" x="200" y="805"><symbol viewBox="280 280 440 440" id="SvgjsSymbol1054"><path d="M500 620q-50 0 -85 -35t-35 -85t35 -85t85 -35t85 35t35 85t-35 85t-85 35zM500 660q32 0 61.5 -12.5t51.5 -34.5t34.5 -51.5t12.5 -61.5t-12.5 -61.5t-34.5 -51.5t-51.5 -34.5t-61.5 -12.5t-61.5 12.5t-51.5 34.5t-34.5 51.5t-12.5 61.5t12.5 61.5t34.5 51.5t51.5 34.5t61.5 12.5zM500 720q-45 0 -85 -17t-70.5 -47.5t-47.5 -70.5t-17 -85t17 -85t47.5 -70.5t70.5 -47.5t85 -17t85 17t70.5 47.5t47.5 70.5t17 85t-17 85t-47.5 70.5t-70.5 47.5t-85 17z" data-playerfill="true" stroke-width="5" stroke="#000000" fill="#000000"></path></symbol><use href="#SvgjsSymbol1054" x="25" y="25" transform="matrix(0.75,0,0,0.75,6.25,6.25)"></use><text x="0" y="192.1015625" svgjs:data="{&quot;leading&quot;:&quot;1.3&quot;}">chess-pawn-solid-montreal</text></svg><svg width="200" height="200" x="400" y="805"><symbol viewBox="-3905.0000000000005 -3837.4999999999995 3711 3711" id="SvgjsSymbol1055"><path d="M2048 2120h-285l285 488l281 -488h-281zM3282 2622l-802 -218l-432 749l-431 -747l-802 214l508 -776h1450zM3905 3068l-969 -1498h-1777l-965 1498l1291 -349l563 975l564 -973zM1436 1027v-479h1223v479h-1223zM1159 1298h1777v-1028h-1777v1028z" transform="matrix(-1,1.2246467991473532e-16,-1.2246467991473532e-16,-1,0,0)" data-playerfill="true" fill="#000000"></path></symbol><use href="#SvgjsSymbol1055" x="25" y="25" transform="matrix(0.75,0,0,0.75,6.25,6.25)"></use><text x="0" y="192.1015625" svgjs:data="{&quot;leading&quot;:&quot;1.3&quot;}">chess-queen-outline-line</text></svg><svg width="200" height="200" x="600" y="805"><symbol viewBox="-1876.5000000000002 -1877 1706.0000000000002 1706.0000000000002" id="SvgjsSymbol1056"><path d="M1470 855l-2 -445h-888v450l445 232zM1176 1467l225 121v289h305v-494l-336 -179l336 -180v-853h-1365v853l339 178l-339 181v494h306v-289l225 -119l-1 408h306zM1401 820l-376 200l-378 -200v-342h754v342zM1639 987l-410 215l410 222v385h-171v-260l-359 -193v453 h-170v-453l-359 193v260h-171l1 -385l409 -222l-409 -215l-1 -748h1230v748z" transform="matrix(-1,1.2246467991473532e-16,-1.2246467991473532e-16,-1,0,0)" data-playerfill="true" fill="#000000"></path></symbol><use href="#SvgjsSymbol1056" x="25" y="25" transform="matrix(0.75,0,0,0.75,6.25,6.25)"></use><text x="0" y="192.1015625" svgjs:data="{&quot;leading&quot;:&quot;1.3&quot;}">chess-queen-outline-millenia</text></svg><svg width="200" height="200" x="800" y="805"><symbol viewBox="40 40 920 920" id="SvgjsSymbol1057"><path d="M500 520q8 0 14 -6t6 -14t-6 -14t-14 -6t-14 6t-6 14t6 14t14 6zM500 560q-25 0 -42.5 -17.5t-17.5 -42.5t17.5 -42.5t42.5 -17.5t42.5 17.5t17.5 42.5t-17.5 42.5t-42.5 17.5zM500 600q41 0 70.5 -29.5t29.5 -70.5t-29.5 -70.5t-70.5 -29.5t-70.5 29.5t-29.5 70.5t29.5 70.5t70.5 29.5zM500 640q-58 0 -99 -41t-41 -99t41 -99t99 -41t99 41t41 99t-41 99t-99 41zM273 710q-17 -10 -33 -10q-25 0 -42.5 17.5t-17.5 42.5t17.5 42.5t42.5 17.5t42.5 -17.5t17.5 -42.5q0 -16 -10 -33l140 -57l54 132q-19 5 -31.5 21t-12.5 37q0 25 17.5 42.5t42.5 17.5t42.5 -17.5t17.5 -42.5q0 -21 -12.5 -37t-31.5 -21l54 -132l140 57q-10 17 -10 33q0 25 17.5 42.5t42.5 17.5t42.5 -17.5t17.5 -42.5t-17.5 -42.5t-42.5 -17.5q-16 0 -33 10l-57 -139l132 -55q5 19 21 31.5t37 12.5q25 0 42.5 -17.5t17.5 -42.5t-17.5 -42.5t-42.5 -17.5q-21 0 -37 12.5t-21 31.5l-132 -55l57 -139q17 10 33 10q25 0 42.5 -17.5t17.5 -42.5t-17.5 -42.5t-42.5 -17.5t-42.5 17.5t-17.5 42.5q0 16 10 33l-140 57l-54 -132q19 -5 31.5 -21t12.5 -37q0 -25 -17.5 -42.5t-42.5 -17.5t-42.5 17.5t-17.5 42.5q0 21 12.5 37t31.5 21l-54 132l-103 -42l-37 -15q10 -17 10 -33q0 -25 -17.5 -42.5t-42.5 -17.5t-42.5 17.5t-17.5 42.5t17.5 42.5t42.5 17.5q16 0 33 -10l57 139l-132 55q-5 -19 -21 -31.5t-37 -12.5q-25 0 -42.5 17.5t-17.5 42.5t17.5 42.5t42.5 17.5q21 0 37 -12.5t21 -31.5l132 55zM960 500q0 41 -29.5 70.5t-70.5 29.5q-22 0 -42 -9.5t-34 -25.5l-62 26l30 69h8q41 0 70.5 29.5t29.5 70.5t-29.5 70.5t-70.5 29.5t-70.5 -29.5t-29.5 -70.5v-8l-70 -30l-26 62q17 14 26.5 34t9.5 42q0 41 -29.5 70.5t-70.5 29.5t-70.5 -29.5t-29.5 -70.5q0 -22 9.5 -42t26.5 -34l-26 -62l-70 30v8q0 41 -29.5 70.5t-70.5 29.5t-70.5 -29.5t-29.5 -70.5t29.5 -70.5t70.5 -29.5h8l30 -69l-62 -26q-14 16 -34 25.5t-42 9.5q-41 0 -70.5 -29.5t-29.5 -70.5t29.5 -70.5t70.5 -29.5q22 0 42 9.5t34 25.5l62 -26l-30 -69h-8q-41 0 -70.5 -29.5t-29.5 -70.5t29.5 -70.5t70.5 -29.5t70.5 29.5t29.5 70.5v8l70 30l26 -62q-17 -14 -26.5 -34t-9.5 -42q0 -41 29.5 -70.5t70.5 -29.5t70.5 29.5t29.5 70.5q0 22 -9.5 42t-26.5 34l26 62l70 -30v-8q0 -41 29.5 -70.5t70.5 -29.5t70.5 29.5t29.5 70.5t-29.5 70.5t-70.5 29.5h-8l-30 69l62 26q14 -16 34 -25.5t42 -9.5q41 0 70.5 29.5t29.5 70.5z" data-playerfill="true" fill="#000000"></path></symbol><use href="#SvgjsSymbol1057" x="25" y="25" transform="matrix(0.75,0,0,0.75,6.25,6.25)"></use><text x="0" y="192.1015625" svgjs:data="{&quot;leading&quot;:&quot;1.3&quot;}">chess-queen-outline-montreal</text></svg><svg width="200" height="200" x="1000" y="805"><symbol viewBox="-3905.0000000000005 -3837.4999999999995 3711 3711" id="SvgjsSymbol1058"><path d="M1159 1298h1777v-1028h-1777v1028zM3905 3068l-969 -1498h-1777l-965 1498l1291 -349l563 975l564 -973zM2048 2120h281l-281 488l-285 -488h285z" transform="matrix(-1,1.2246467991473532e-16,-1.2246467991473532e-16,-1,0,0)" data-playerfill="true" stroke-width="5" stroke="#000000" fill="#000000"></path></symbol><use href="#SvgjsSymbol1058" x="25" y="25" transform="matrix(0.75,0,0,0.75,6.25,6.25)"></use><text x="0" y="192.1015625" svgjs:data="{&quot;leading&quot;:&quot;1.3&quot;}">chess-queen-solid-line</text></svg><svg width="200" height="200" x="0" y="1005"><symbol viewBox="-1876.5000000000002 -1877 1706.0000000000002 1706.0000000000002" id="SvgjsSymbol1059"><path d="M1176 1467l225 121v289h305v-494l-336 -179l336 -180v-853h-1365v853l339 178l-339 181v494h306v-289l225 -119l-1 408h306zM1401 820l-376 200l-378 -200v-342h754v342z" transform="matrix(-1,1.2246467991473532e-16,-1.2246467991473532e-16,-1,0,0)" data-playerfill="true" stroke-width="5" stroke="#000000" fill="#000000"></path></symbol><use href="#SvgjsSymbol1059" x="25" y="25" transform="matrix(0.75,0,0,0.75,6.25,6.25)"></use><text x="0" y="192.1015625" svgjs:data="{&quot;leading&quot;:&quot;1.3&quot;}">chess-queen-solid-millenia</text></svg><svg width="200" height="200" x="200" y="1005"><symbol viewBox="40 40 920 920" id="SvgjsSymbol1060"><path d="M500 520q8 0 14 -6t6 -14t-6 -14t-14 -6t-14 6t-6 14t6 14t14 6zM240 780q8 0 14 -6t6 -14t-6 -14t-14 -6t-14 6t-6 14t6 14t14 6zM140 520q8 0 14 -6t6 -14t-6 -14t-14 -6t-14 6t-6 14t6 14t14 6zM240 260q8 0 14 -6t6 -14t-6 -14t-14 -6t-14 6t-6 14t6 14t14 6zM500 160q8 0 14 -6t6 -14t-6 -14t-14 -6t-14 6t-6 14t6 14t14 6zM760 260q8 0 14 -6t6 -14t-6 -14t-14 -6t-14 6t-6 14t6 14t14 6zM860 520q8 0 14 -6t6 -14t-6 -14t-14 -6t-14 6t-6 14t6 14t14 6zM760 780q8 0 14 -6t6 -14t-6 -14t-14 -6t-14 6t-6 14t6 14t14 6zM500 880q8 0 14 -6t6 -14t-6 -14t-14 -6t-14 6t-6 14t6 14t14 6zM960 500q0 41 -29.5 70.5t-70.5 29.5q-22 0 -42 -9.5t-34 -25.5l-62 26l30 69h8q41 0 70.5 29.5t29.5 70.5t-29.5 70.5t-70.5 29.5t-70.5 -29.5t-29.5 -70.5v-8l-70 -30l-26 62q17 14 26.5 34t9.5 42q0 41 -29.5 70.5t-70.5 29.5t-70.5 -29.5t-29.5 -70.5q0 -22 9.5 -42t26.5 -34l-26 -62l-70 30v8q0 41 -29.5 70.5t-70.5 29.5t-70.5 -29.5t-29.5 -70.5t29.5 -70.5t70.5 -29.5h8l30 -69l-62 -26q-14 16 -34 25.5t-42 9.5q-41 0 -70.5 -29.5t-29.5 -70.5t29.5 -70.5t70.5 -29.5q22 0 42 9.5t34 25.5l62 -26l-30 -69h-8q-41 0 -70.5 -29.5t-29.5 -70.5t29.5 -70.5t70.5 -29.5t70.5 29.5t29.5 70.5v8l70 30l26 -62q-17 -14 -26.5 -34t-9.5 -42q0 -41 29.5 -70.5t70.5 -29.5t70.5 29.5t29.5 70.5q0 22 -9.5 42t-26.5 34l26 62l70 -30v-8q0 -41 29.5 -70.5t70.5 -29.5t70.5 29.5t29.5 70.5t-29.5 70.5t-70.5 29.5h-8l-30 69l62 26q14 -16 34 -25.5t42 -9.5q41 0 70.5 29.5t29.5 70.5zM500 640q58 0 99 -41t41 -99t-41 -99t-99 -41t-99 41t-41 99t41 99t99 41zM500 600q-41 0 -70.5 -29.5t-29.5 -70.5t29.5 -70.5t70.5 -29.5t70.5 29.5t29.5 70.5t-29.5 70.5t-70.5 29.5z" data-playerfill="true" stroke-width="5" stroke="#000000" fill="#000000"></path></symbol><use href="#SvgjsSymbol1060" x="25" y="25" transform="matrix(0.75,0,0,0.75,6.25,6.25)"></use><text x="0" y="192.1015625" svgjs:data="{&quot;leading&quot;:&quot;1.3&quot;}">chess-queen-solid-montreal</text></svg><svg width="200" height="200" x="400" y="1005"><symbol viewBox="-3683.0000000000005 -3311.5 3277.0000000000005 3277.0000000000005" id="SvgjsSymbol1061"><path d="M1436 1027v-479h1223v479h-1223zM1159 1298h1777v-1028h-1777v1028zM2048 2255h-135v543h-477v-543h-277v543h-476v-957h2729v957h-476v-543h-277v543h-476v-543h-135zM406 3076h3277v-1506h-3277v1506z" transform="matrix(-1,1.2246467991473532e-16,-1.2246467991473532e-16,-1,0,0)" data-playerfill="true" fill="#000000"></path></symbol><use href="#SvgjsSymbol1061" x="25" y="25" transform="matrix(0.75,0,0,0.75,6.25,6.25)"></use><text x="0" y="192.1015625" svgjs:data="{&quot;leading&quot;:&quot;1.3&quot;}">chess-rook-outline-line</text></svg><svg width="200" height="200" x="600" y="1005"><symbol viewBox="-1791.0000000000002 -1706 1535.0000000000002 1535.0000000000002" id="SvgjsSymbol1062"><path d="M341 1024l339 179l-339 180v323h306v-118l381 -200l373 200v118h305v-323l-334 -180l334 -179v-853h-1365v853zM1024 1020l-377 -200v-342h754v342zM1470 855l-2 -445h-888v450l445 232zM580 1549v89h-171l1 -214l409 -222l-409 -215l-1 -748h1230v748l-410 215l410 222 v214h-171v-89l-444 -238l-440 236z" transform="matrix(-1,1.2246467991473532e-16,-1.2246467991473532e-16,-1,0,0)" data-playerfill="true" fill="#000000"></path></symbol><use href="#SvgjsSymbol1062" x="25" y="25" transform="matrix(0.75,0,0,0.75,6.25,6.25)"></use><text x="0" y="192.1015625" svgjs:data="{&quot;leading&quot;:&quot;1.3&quot;}">chess-rook-outline-millenia</text></svg><svg width="200" height="200" x="800" y="1005"><symbol viewBox="142 142 716 716" id="SvgjsSymbol1063"><path d="M274 580h-83q22 84 83.5 145.5t145.5 84.5v-83q-51 -18 -89.5 -57t-56.5 -90zM274 420q18 -51 56.5 -89.5t89.5 -56.5v-84q-84 23 -145.5 85t-83.5 145h83zM696 540h61q3 -19 3 -40q0 -20 -3 -40h-61q-12 -58 -55 -101t-101 -55v-61q-19 -3 -40 -3q-20 0 -40 3v61q-58 12 -101 55t-55 101h-61q-3 20 -3 40q0 21 3 40h61q12 58 55 101t101 55v61q20 3 40 3q21 0 40 -3v-61q58 -12 101 -55t55 -101zM858 540q-7 61 -34 116.5t-70 98.5t-98 69.5t-116 33.5v-61q-19 3 -40 3q-20 0 -40 -3v61q-61 -7 -116 -33.5t-98 -69.5t-70 -98t-34 -117h61q-3 -19 -3 -40q0 -20 3 -40h-61q7 -61 34 -116t70 -98t98 -70t116 -34v61q20 -3 40 -3q21 0 40 3v-61q61 7 116 34t98 70t70 98t34 116h-61q3 20 3 40q0 21 -3 40h61zM580 274q51 18 89.5 56.5t56.5 89.5h84q-22 -84 -84 -145.5t-146 -84.5v84zM580 727v83q84 -23 146 -84.5t84 -145.5h-84q-18 51 -56.5 90t-89.5 57z" data-playerfill="true" fill="#000000"></path></symbol><use href="#SvgjsSymbol1063" x="25" y="25" transform="matrix(0.75,0,0,0.75,6.25,6.25)"></use><text x="0" y="192.1015625" svgjs:data="{&quot;leading&quot;:&quot;1.3&quot;}">chess-rook-outline-montreal</text></svg><svg width="200" height="200" x="1000" y="1005"><symbol viewBox="-3683.0000000000005 -3311.5 3277.0000000000005 3277.0000000000005" id="SvgjsSymbol1064"><path d="M2762 2798v-678h345v678h-345zM1877 2798v-678h341v678h-341zM988 2798v-678h345v678h-345zM406 3076h3277v-1506h-3277v1506zM1159 1298h1777v-1028h-1777v1028z" transform="matrix(-1,1.2246467991473532e-16,-1.2246467991473532e-16,-1,0,0)" data-playerfill="true" stroke-width="5" stroke="#000000" fill="#000000"></path></symbol><use href="#SvgjsSymbol1064" x="25" y="25" transform="matrix(0.75,0,0,0.75,6.25,6.25)"></use><text x="0" y="192.1015625" svgjs:data="{&quot;leading&quot;:&quot;1.3&quot;}">chess-rook-solid-line</text></svg><svg width="200" height="200" x="0" y="1205"><symbol viewBox="-1791.0000000000002 -1706 1535.0000000000002 1535.0000000000002" id="SvgjsSymbol1065"><path d="M1024 1020l-377 -200v-342h754v342zM341 1024l339 179l-339 180v323h306v-118l381 -200l373 200v118h305v-323l-334 -180l334 -179v-853h-1365v853z" transform="matrix(-1,1.2246467991473532e-16,-1.2246467991473532e-16,-1,0,0)" data-playerfill="true" stroke-width="5" stroke="#000000" fill="#000000"></path></symbol><use href="#SvgjsSymbol1065" x="25" y="25" transform="matrix(0.75,0,0,0.75,6.25,6.25)"></use><text x="0" y="192.1015625" svgjs:data="{&quot;leading&quot;:&quot;1.3&quot;}">chess-rook-solid-millenia</text></svg><svg width="200" height="200" x="200" y="1205"><symbol viewBox="142 142 716 716" id="SvgjsSymbol1066"><path d="M858 540q-7 61 -34 116.5t-70 98.5t-98 69.5t-116 33.5v-61q-19 3 -40 3q-20 0 -40 -3v61q-61 -7 -116 -33.5t-98 -69.5t-70 -98t-34 -117h61q-3 -19 -3 -40q0 -20 3 -40h-61q7 -61 34 -116t70 -98t98 -70t116 -34v61q20 -3 40 -3q21 0 40 3v-61q61 7 116 34t98 70t70 98t34 116h-61q3 20 3 40q0 21 -3 40h61zM420 727q-51 -18 -89.5 -57t-56.5 -90h-83q7 24 13 40h43q21 44 55 78t78 55v43q15 7 40 14v-83zM420 274v-84q-25 7 -40 14v44q-43 20 -77.5 54t-55.5 78h-43q-6 16 -13 40h83q18 -51 56.5 -89.5t89.5 -56.5zM580 274q51 18 89.5 56.5t56.5 89.5h84q-3 -14 -13 -40h-44q-20 -43 -54.5 -77.5t-78.5 -55.5v-43q-15 -7 -40 -14v84zM726 580q-18 51 -56.5 90t-89.5 57v83q24 -7 40 -13v-44q43 -20 77.5 -54.5t55.5 -78.5h44q6 -16 13 -40h-84z" data-playerfill="true" stroke-width="5" stroke="#000000" fill="#000000"></path></symbol><use href="#SvgjsSymbol1066" x="25" y="25" transform="matrix(0.75,0,0,0.75,6.25,6.25)"></use><text x="0" y="192.1015625" svgjs:data="{&quot;leading&quot;:&quot;1.3&quot;}">chess-rook-solid-montreal</text></svg></svg><svg id="sheet_dice" width="1200" height="205" x="0" y="2375"><svg><text x="0" y="17.1015625" svgjs:data="{&quot;leading&quot;:&quot;1.3&quot;}">Sheet Name: dice</text></svg><svg width="200" height="200" x="0" y="5"><symbol viewBox="0 0 50 50" id="SvgjsSymbol1067"><rect width="48" height="48" rx="10" ry="10" fill="none" stroke-width="1" stroke="#000000" data-playerfill="true" x="1" y="1"></rect><circle r="5" cx="25" cy="25" fill="#000000"></circle></symbol><use href="#SvgjsSymbol1067" x="25" y="25" transform="matrix(0.75,0,0,0.75,6.25,6.25)"></use><text x="0" y="192.1015625" svgjs:data="{&quot;leading&quot;:&quot;1.3&quot;}">d6-1</text></svg><svg width="200" height="200" x="200" y="5"><symbol viewBox="0 0 50 50" id="SvgjsSymbol1068"><rect width="48" height="48" rx="10" ry="10" fill="none" stroke-width="1" stroke="#000000" data-playerfill="true" x="1" y="1"></rect><circle r="5" cx="13.5" cy="13.5" fill="#000000"></circle><circle r="5" cx="36.5" cy="36.5" fill="#000000"></circle></symbol><use href="#SvgjsSymbol1068" x="25" y="25" transform="matrix(0.75,0,0,0.75,6.25,6.25)"></use><text x="0" y="192.1015625" svgjs:data="{&quot;leading&quot;:&quot;1.3&quot;}">d6-2</text></svg><svg width="200" height="200" x="400" y="5"><symbol viewBox="0 0 50 50" id="SvgjsSymbol1069"><rect width="48" height="48" rx="10" ry="10" fill="none" stroke-width="1" stroke="#000000" data-playerfill="true" x="1" y="1"></rect><circle r="5" cx="13.5" cy="13.5" fill="#000000"></circle><circle r="5" cx="25" cy="25" fill="#000000"></circle><circle r="5" cx="36.5" cy="36.5" fill="#000000"></circle></symbol><use href="#SvgjsSymbol1069" x="25" y="25" transform="matrix(0.75,0,0,0.75,6.25,6.25)"></use><text x="0" y="192.1015625" svgjs:data="{&quot;leading&quot;:&quot;1.3&quot;}">d6-3</text></svg><svg width="200" height="200" x="600" y="5"><symbol viewBox="0 0 50 50" id="SvgjsSymbol1070"><rect width="48" height="48" rx="10" ry="10" fill="none" stroke-width="1" stroke="#000000" data-playerfill="true" x="1" y="1"></rect><circle r="5" cx="13.5" cy="13.5" fill="#000000"></circle><circle r="5" cx="36.5" cy="36.5" fill="#000000"></circle><circle r="5" cx="36.5" cy="13.5" fill="#000000"></circle><circle r="5" cx="13.5" cy="36.5" fill="#000000"></circle></symbol><use href="#SvgjsSymbol1070" x="25" y="25" transform="matrix(0.75,0,0,0.75,6.25,6.25)"></use><text x="0" y="192.1015625" svgjs:data="{&quot;leading&quot;:&quot;1.3&quot;}">d6-4</text></svg><svg width="200" height="200" x="800" y="5"><symbol viewBox="0 0 50 50" id="SvgjsSymbol1071"><rect width="48" height="48" rx="10" ry="10" fill="none" stroke-width="1" stroke="#000000" data-playerfill="true" x="1" y="1"></rect><circle r="5" cx="13.5" cy="13.5" fill="#000000"></circle><circle r="5" cx="36.5" cy="36.5" fill="#000000"></circle><circle r="5" cx="36.5" cy="13.5" fill="#000000"></circle><circle r="5" cx="13.5" cy="36.5" fill="#000000"></circle><circle r="5" cx="25" cy="25" fill="#000000"></circle></symbol><use href="#SvgjsSymbol1071" x="25" y="25" transform="matrix(0.75,0,0,0.75,6.25,6.25)"></use><text x="0" y="192.1015625" svgjs:data="{&quot;leading&quot;:&quot;1.3&quot;}">d6-5</text></svg><svg width="200" height="200" x="1000" y="5"><symbol viewBox="0 0 50 50" id="SvgjsSymbol1072"><rect width="48" height="48" rx="10" ry="10" fill="none" stroke-width="1" stroke="#000000" data-playerfill="true" x="1" y="1"></rect><circle r="5" cx="13.5" cy="10" fill="#000000"></circle><circle r="5" cx="36.5" cy="40" fill="#000000"></circle><circle r="5" cx="36.5" cy="10" fill="#000000"></circle><circle r="5" cx="13.5" cy="40" fill="#000000"></circle><circle r="5" cx="13.5" cy="25" fill="#000000"></circle><circle r="5" cx="36.5" cy="25" fill="#000000"></circle></symbol><use href="#SvgjsSymbol1072" x="25" y="25" transform="matrix(0.75,0,0,0.75,6.25,6.25)"></use><text x="0" y="192.1015625" svgjs:data="{&quot;leading&quot;:&quot;1.3&quot;}">d6-6</text></svg></svg><svg id="sheet_looney" width="1200" height="410" x="0" y="2620"><svg><text x="0" y="17.1015625" svgjs:data="{&quot;leading&quot;:&quot;1.3&quot;}">Sheet Name: looney</text></svg><svg width="200" height="200" x="0" y="5"><symbol viewBox="0 0 180 180" id="SvgjsSymbol1073"><polygon points="90,2.5 40,177.5 140,177.5" data-playerfill="true" stroke-opacity="0.5" stroke-width="2" stroke="#000000" fill="#ffffff"></polygon><circle r="5" cx="52.5" cy="167.5" fill="#000000" opacity="0.75"></circle><circle r="5" cx="67.5" cy="167.5" fill="#000000" opacity="0.75"></circle><circle r="5" cx="82.5" cy="167.5" fill="#000000" opacity="0.75"></circle></symbol><use href="#SvgjsSymbol1073" x="25" y="25" transform="matrix(0.75,0,0,0.75,6.25,6.25)"></use><text x="0" y="192.1015625" svgjs:data="{&quot;leading&quot;:&quot;1.3&quot;}">pyramid-flat-large</text></svg><svg width="200" height="200" x="200" y="5"><symbol viewBox="0 0 180 180" id="SvgjsSymbol1074"><polygon points="90,21.25 50.9375,158.75 129.0625,158.75" data-playerfill="true" stroke-opacity="0.5" stroke-width="2" stroke="#000000" fill="#ffffff"></polygon><circle r="5" cx="63.4375" cy="148.75" fill="#000000" opacity="0.75"></circle><circle r="5" cx="78.4375" cy="148.75" fill="#000000" opacity="0.75"></circle></symbol><use href="#SvgjsSymbol1074" x="25" y="25" transform="matrix(0.75,0,0,0.75,6.25,6.25)"></use><text x="0" y="192.1015625" svgjs:data="{&quot;leading&quot;:&quot;1.3&quot;}">pyramid-flat-medium</text></svg><svg width="200" height="200" x="400" y="5"><symbol viewBox="0 0 180 180" id="SvgjsSymbol1075"><polygon points="90,40 61.875,140 118.125,140" data-playerfill="true" stroke-opacity="0.5" stroke-width="2" stroke="#000000" fill="#ffffff"></polygon><circle r="5" cx="74.375" cy="130" fill="#000000" opacity="0.75"></circle></symbol><use href="#SvgjsSymbol1075" x="25" y="25" transform="matrix(0.75,0,0,0.75,6.25,6.25)"></use><text x="0" y="192.1015625" svgjs:data="{&quot;leading&quot;:&quot;1.3&quot;}">pyramid-flat-small</text></svg><svg width="200" height="200" x="600" y="5"><symbol viewBox="0 -1.5 180 180" id="SvgjsSymbol1076"><g><polygon points="90,2.5 40,177.5 140,177.5" data-playerfill="true" stroke-opacity="0.5" stroke-width="2" stroke="#000000" fill="#ffffff"></polygon><circle r="5" cx="52.5" cy="167.5" fill="#000000" opacity="0.75"></circle><circle r="5" cx="67.5" cy="167.5" fill="#000000" opacity="0.75"></circle><circle r="5" cx="82.5" cy="167.5" fill="#000000" opacity="0.75"></circle></g></symbol><use href="#SvgjsSymbol1076" x="25" y="25" transform="matrix(0.75,0,0,0.75,6.25,6.25)"></use><text x="0" y="192.1015625" svgjs:data="{&quot;leading&quot;:&quot;1.3&quot;}">pyramid-flattened-large</text></svg><svg width="200" height="200" x="800" y="5"><symbol viewBox="0 -20.25 180 180" id="SvgjsSymbol1077"><g><polygon points="90,21.25 50.9375,158.75 129.0625,158.75" data-playerfill="true" stroke-opacity="0.5" stroke-width="2" stroke="#000000" fill="#ffffff"></polygon><circle r="5" cx="63.4375" cy="148.75" fill="#000000" opacity="0.75"></circle><circle r="5" cx="78.4375" cy="148.75" fill="#000000" opacity="0.75"></circle></g></symbol><use href="#SvgjsSymbol1077" x="25" y="25" transform="matrix(0.75,0,0,0.75,6.25,6.25)"></use><text x="0" y="192.1015625" svgjs:data="{&quot;leading&quot;:&quot;1.3&quot;}">pyramid-flattened-medium</text></svg><svg width="200" height="200" x="1000" y="5"><symbol viewBox="0 -39 180 180" id="SvgjsSymbol1078"><g><polygon points="90,40 61.875,140 118.125,140" data-playerfill="true" stroke-opacity="0.5" stroke-width="2" stroke="#000000" fill="#ffffff"></polygon><circle r="5" cx="74.375" cy="130" fill="#000000" opacity="0.75"></circle></g></symbol><use href="#SvgjsSymbol1078" x="25" y="25" transform="matrix(0.75,0,0,0.75,6.25,6.25)"></use><text x="0" y="192.1015625" svgjs:data="{&quot;leading&quot;:&quot;1.3&quot;}">pyramid-flattened-small</text></svg><svg width="200" height="200" x="0" y="205"><symbol viewBox="0 0 180 180" id="SvgjsSymbol1079"><rect width="100" height="100" data-playerfill="true" stroke-opacity="0.5" stroke-width="2" stroke="#000000" fill="#ffffff" x="40" y="40"></rect><line x1="40" y1="140" x2="140" y2="40" stroke-opacity="0.25" stroke-width="1" stroke="#000000"></line><line x1="40" y1="40" x2="140" y2="140" stroke-opacity="0.25" stroke-width="1" stroke="#000000"></line><circle r="2" cx="90" cy="90" fill="#000000" opacity="0.25"></circle><line x1="50" y1="136" x2="60" y2="136" stroke-opacity="0.75" stroke-width="2" stroke="#000000"></line><line x1="65" y1="136" x2="75" y2="136" stroke-opacity="0.75" stroke-width="2" stroke="#000000"></line><line x1="80" y1="136" x2="90" y2="136" stroke-opacity="0.75" stroke-width="2" stroke="#000000"></line><line x1="130" y1="44" x2="120" y2="44" stroke-opacity="0.75" stroke-width="2" stroke="#000000"></line><line x1="115" y1="44" x2="105" y2="44" stroke-opacity="0.75" stroke-width="2" stroke="#000000"></line><line x1="100" y1="44" x2="90" y2="44" stroke-opacity="0.75" stroke-width="2" stroke="#000000"></line><line x1="44" y1="50" x2="44" y2="60" stroke-opacity="0.75" stroke-width="2" stroke="#000000"></line><line x1="44" y1="65" x2="44" y2="75" stroke-opacity="0.75" stroke-width="2" stroke="#000000"></line><line x1="44" y1="80" x2="44" y2="90" stroke-opacity="0.75" stroke-width="2" stroke="#000000"></line><line x1="136" y1="130" x2="136" y2="120" stroke-opacity="0.75" stroke-width="2" stroke="#000000"></line><line x1="136" y1="115" x2="136" y2="105" stroke-opacity="0.75" stroke-width="2" stroke="#000000"></line><line x1="136" y1="100" x2="136" y2="90" stroke-opacity="0.75" stroke-width="2" stroke="#000000"></line></symbol><use href="#SvgjsSymbol1079" x="25" y="25" transform="matrix(0.75,0,0,0.75,6.25,6.25)"></use><text x="0" y="192.1015625" svgjs:data="{&quot;leading&quot;:&quot;1.3&quot;}">pyramid-up-large</text></svg><svg width="200" height="200" x="200" y="205"><symbol viewBox="0 0 102 102" id="SvgjsSymbol1080"><rect width="102" height="102" fill="none"></rect><rect width="100" height="100" data-playerfill="true" stroke-opacity="0.5" stroke-width="2" stroke="#000000" fill="#ffffff" x="1" y="1"></rect><line x1="1" y1="101" x2="101" y2="1" stroke-opacity="0.25" stroke-width="1" stroke="#000000"></line><line x1="1" y1="1" x2="101" y2="101" stroke-opacity="0.25" stroke-width="1" stroke="#000000"></line><circle r="2" cx="51" cy="51" fill="#000000" opacity="0.25"></circle><line x1="11" y1="97" x2="21" y2="97" stroke-opacity="0.75" stroke-width="2" stroke="#000000"></line><line x1="26" y1="97" x2="36" y2="97" stroke-opacity="0.75" stroke-width="2" stroke="#000000"></line><line x1="41" y1="97" x2="51" y2="97" stroke-opacity="0.75" stroke-width="2" stroke="#000000"></line><line x1="91" y1="5" x2="81" y2="5" stroke-opacity="0.75" stroke-width="2" stroke="#000000"></line><line x1="76" y1="5" x2="66" y2="5" stroke-opacity="0.75" stroke-width="2" stroke="#000000"></line><line x1="61" y1="5" x2="51" y2="5" stroke-opacity="0.75" stroke-width="2" stroke="#000000"></line><line x1="5" y1="11" x2="5" y2="21" stroke-opacity="0.75" stroke-width="2" stroke="#000000"></line><line x1="5" y1="26" x2="5" y2="36" stroke-opacity="0.75" stroke-width="2" stroke="#000000"></line><line x1="5" y1="41" x2="5" y2="51" stroke-opacity="0.75" stroke-width="2" stroke="#000000"></line><line x1="97" y1="91" x2="97" y2="81" stroke-opacity="0.75" stroke-width="2" stroke="#000000"></line><line x1="97" y1="76" x2="97" y2="66" stroke-opacity="0.75" stroke-width="2" stroke="#000000"></line><line x1="97" y1="61" x2="97" y2="51" stroke-opacity="0.75" stroke-width="2" stroke="#000000"></line></symbol><use href="#SvgjsSymbol1080" x="25" y="25" transform="matrix(0.75,0,0,0.75,6.25,6.25)"></use><text x="0" y="192.1015625" svgjs:data="{&quot;leading&quot;:&quot;1.3&quot;}">pyramid-up-large-upscaled</text></svg><svg width="200" height="200" x="400" y="205"><symbol viewBox="0 0 180 180" id="SvgjsSymbol1081"><rect width="180" height="180" fill="none"></rect><rect width="78.125" height="78.125" data-playerfill="true" stroke-opacity="0.5" stroke-width="2" stroke="#000000" fill="#ffffff" x="50.9375" y="50.9375"></rect><line x1="50.9375" y1="129.0625" x2="129.0625" y2="50.9375" stroke-opacity="0.25" stroke-width="1" stroke="#000000"></line><line x1="50.9375" y1="50.9375" x2="129.0625" y2="129.0625" stroke-opacity="0.25" stroke-width="1" stroke="#000000"></line><circle r="2" cx="90" cy="90" fill="#000000" opacity="0.25"></circle><line x1="60.9375" y1="125.0625" x2="70.9375" y2="125.0625" stroke-opacity="0.75" stroke-width="2" stroke="#000000"></line><line x1="75.9375" y1="125.0625" x2="85.9375" y2="125.0625" stroke-opacity="0.75" stroke-width="2" stroke="#000000"></line><line x1="119.0625" y1="54.9375" x2="109.0625" y2="54.9375" stroke-opacity="0.75" stroke-width="2" stroke="#000000"></line><line x1="104.0625" y1="54.9375" x2="94.0625" y2="54.9375" stroke-opacity="0.75" stroke-width="2" stroke="#000000"></line><line x1="54.9375" y1="60.9375" x2="54.9375" y2="70.9375" stroke-opacity="0.75" stroke-width="2" stroke="#000000"></line><line x1="54.9375" y1="75.9375" x2="54.9375" y2="85.9375" stroke-opacity="0.75" stroke-width="2" stroke="#000000"></line><line x1="125.0625" y1="119.0625" x2="125.0625" y2="109.0625" stroke-opacity="0.75" stroke-width="2" stroke="#000000"></line><line x1="125.0625" y1="104.0625" x2="125.0625" y2="94.0625" stroke-opacity="0.75" stroke-width="2" stroke="#000000"></line></symbol><use href="#SvgjsSymbol1081" x="25" y="25" transform="matrix(0.75,0,0,0.75,6.25,6.25)"></use><text x="0" y="192.1015625" svgjs:data="{&quot;leading&quot;:&quot;1.3&quot;}">pyramid-up-medium</text></svg><svg width="200" height="200" x="600" y="205"><symbol viewBox="0 0 102 102" id="SvgjsSymbol1082"><rect width="102" height="102" fill="none"></rect><rect width="78.125" height="78.125" data-playerfill="true" stroke-opacity="0.5" stroke-width="2" stroke="#000000" fill="#ffffff" x="11.9375" y="11.9375"></rect><line x1="11.9375" y1="90.0625" x2="90.0625" y2="11.9375" stroke-opacity="0.25" stroke-width="1" stroke="#000000"></line><line x1="11.9375" y1="11.9375" x2="90.0625" y2="90.0625" stroke-opacity="0.25" stroke-width="1" stroke="#000000"></line><circle r="2" cx="51" cy="51" fill="#000000" opacity="0.25"></circle><line x1="21.9375" y1="86.0625" x2="31.9375" y2="86.0625" stroke-opacity="0.75" stroke-width="2" stroke="#000000"></line><line x1="36.9375" y1="86.0625" x2="46.9375" y2="86.0625" stroke-opacity="0.75" stroke-width="2" stroke="#000000"></line><line x1="80.0625" y1="15.9375" x2="70.0625" y2="15.9375" stroke-opacity="0.75" stroke-width="2" stroke="#000000"></line><line x1="65.0625" y1="15.9375" x2="55.0625" y2="15.9375" stroke-opacity="0.75" stroke-width="2" stroke="#000000"></line><line x1="15.9375" y1="21.9375" x2="15.9375" y2="31.9375" stroke-opacity="0.75" stroke-width="2" stroke="#000000"></line><line x1="15.9375" y1="36.9375" x2="15.9375" y2="46.9375" stroke-opacity="0.75" stroke-width="2" stroke="#000000"></line><line x1="86.0625" y1="80.0625" x2="86.0625" y2="70.0625" stroke-opacity="0.75" stroke-width="2" stroke="#000000"></line><line x1="86.0625" y1="65.0625" x2="86.0625" y2="55.0625" stroke-opacity="0.75" stroke-width="2" stroke="#000000"></line></symbol><use href="#SvgjsSymbol1082" x="25" y="25" transform="matrix(0.75,0,0,0.75,6.25,6.25)"></use><text x="0" y="192.1015625" svgjs:data="{&quot;leading&quot;:&quot;1.3&quot;}">pyramid-up-medium-upscaled</text></svg><svg width="200" height="200" x="800" y="205"><symbol viewBox="0 0 180 180" id="SvgjsSymbol1083"><rect width="180" height="180" fill="none"></rect><rect width="56.25" height="56.25" data-playerfill="true" stroke-opacity="0.5" stroke-width="2" stroke="#000000" fill="#ffffff" x="61.875" y="61.875"></rect><line x1="61.875" y1="118.125" x2="118.125" y2="61.875" stroke-opacity="0.25" stroke-width="1" stroke="#000000"></line><line x1="61.875" y1="61.875" x2="118.125" y2="118.125" stroke-opacity="0.25" stroke-width="1" stroke="#000000"></line><circle r="2" cx="90" cy="90" fill="#000000" opacity="0.25"></circle><line x1="71.875" y1="114.125" x2="81.875" y2="114.125" stroke-opacity="0.75" stroke-width="2" stroke="#000000"></line><line x1="108.125" y1="65.875" x2="98.125" y2="65.875" stroke-opacity="0.75" stroke-width="2" stroke="#000000"></line><line x1="65.875" y1="71.875" x2="65.875" y2="81.875" stroke-opacity="0.75" stroke-width="2" stroke="#000000"></line><line x1="114.125" y1="108.125" x2="114.125" y2="98.125" stroke-opacity="0.75" stroke-width="2" stroke="#000000"></line></symbol><use href="#SvgjsSymbol1083" x="25" y="25" transform="matrix(0.75,0,0,0.75,6.25,6.25)"></use><text x="0" y="192.1015625" svgjs:data="{&quot;leading&quot;:&quot;1.3&quot;}">pyramid-up-small</text></svg><svg width="200" height="200" x="1000" y="205"><symbol viewBox="0 0 102 102" id="SvgjsSymbol1084"><rect width="102" height="102" fill="none"></rect><rect width="56.25" height="56.25" data-playerfill="true" stroke-opacity="0.5" stroke-width="2" stroke="#000000" fill="#ffffff" x="22.875" y="22.875"></rect><line x1="22.875" y1="79.125" x2="79.125" y2="22.875" stroke-opacity="0.25" stroke-width="1" stroke="#000000"></line><line x1="22.875" y1="22.875" x2="79.125" y2="79.125" stroke-opacity="0.25" stroke-width="1" stroke="#000000"></line><circle r="2" cx="51" cy="51" fill="#000000" opacity="0.25"></circle><line x1="32.875" y1="75.125" x2="42.875" y2="75.125" stroke-opacity="0.75" stroke-width="2" stroke="#000000"></line><line x1="69.125" y1="26.875" x2="59.125" y2="26.875" stroke-opacity="0.75" stroke-width="2" stroke="#000000"></line><line x1="26.875" y1="32.875" x2="26.875" y2="42.875" stroke-opacity="0.75" stroke-width="2" stroke="#000000"></line><line x1="75.125" y1="69.125" x2="75.125" y2="59.125" stroke-opacity="0.75" stroke-width="2" stroke="#000000"></line></symbol><use href="#SvgjsSymbol1084" x="25" y="25" transform="matrix(0.75,0,0,0.75,6.25,6.25)"></use><text x="0" y="192.1015625" svgjs:data="{&quot;leading&quot;:&quot;1.3&quot;}">pyramid-up-small-upscaled</text></svg></svg><svg id="sheet_piecepack" width="1200" height="820" x="0" y="3070"><svg><text x="0" y="17.1015625" svgjs:data="{&quot;leading&quot;:&quot;1.3&quot;}">Sheet Name: piecepack</text></svg><svg width="200" height="200" x="0" y="5"><symbol viewBox="-680 -800 680 680" id="SvgjsSymbol1085"><path d="M0,460c0,94,33.2,174.2,99.5,240.5S246,800,340,800s174.2-33.2,240.5-99.5S680,554,680,460c0-94.7-33-175-99-241 s-146.3-99-241-99s-175,33-241,99S0,365.3,0,460z M331,762c-82-2-151.5-32.3-208.5-91C65.5,612.3,37,542,37,460 c0-84,29.5-155.5,88.5-214.5S256,157,340,157s155.5,29.5,214.5,88.5S643,376,643,460c0,82-28.5,152.3-85.5,211 c-57,58.7-126.5,89-208.5,91V656h-18V762z" data-playerfill="true" transform="matrix(-1,1.2246467991473532e-16,-1.2246467991473532e-16,-1,0,0)" stroke-width="5" stroke="#000000" fill="#000000"></path></symbol><use href="#SvgjsSymbol1085" x="25" y="25" transform="matrix(0.75,0,0,0.75,6.25,6.25)"></use><text x="0" y="192.1015625" svgjs:data="{&quot;leading&quot;:&quot;1.3&quot;}">piecepack-misc-coin-back</text></svg><svg width="200" height="200" x="200" y="5"><symbol viewBox="0 67 733 733" id="SvgjsSymbol1086"><path d="M733,799.5v-732H0v732H733z M387,446.5c0,15.3-8.7,24.3-26,27c-11.3,1.3-21.3-0.7-30-6c-8.7-8.7-13-19.3-13-32 c0-18,8-31.3,24-40c-9.3,8-14,18-14,30c0,9.3,3.3,17.3,10,24s14.7,9,24,7c8-2.7,12-8,12-16c0-2-0.3-4.3-1-7l-2-3c0.7-0.7,2-1,4-1 C383,430.8,387,436.5,387,446.5z M16,82.5h348v299c-14.7,0-27.2,5.2-37.5,15.5S311,419.8,311,434.5H16V82.5z M717,436.5v348H366 v-295c14.7,0,27.3-5.3,38-16s16-23.3,16-38c0-29.3-14.3-47-43-53c28.7,6,43,23.7,43,53v1H717z M376,414.5c-14.7,0-21.3,5.3-20,16v4 c0.7,1.3,2,3.3,4,6h-1c0,0.7-0.3,1-1,1c-10,2.7-15-2.7-15-16c0-9.3,4-16.8,12-22.5s16.7-7.5,26-5.5c7.3,0.7,14.3,3.7,21,9 c6.7,8.7,10,18.3,10,29c0,17.3-7.7,30.7-23,40c8.7-8.7,13-18.7,13-30C402,426.8,393.3,416.5,376,414.5z" data-playerfill="true" stroke-width="5" stroke="#000000" fill="#000000"></path></symbol><use href="#SvgjsSymbol1086" x="25" y="25" transform="matrix(0.75,0,0,0.75,6.25,6.25)"></use><text x="0" y="192.1015625" svgjs:data="{&quot;leading&quot;:&quot;1.3&quot;}">piecepack-misc-tile-back</text></svg><svg width="200" height="200" x="400" y="5"><symbol viewBox="52 52 696 696" id="SvgjsSymbol1087"><path d="M65.5,401c0,106,29.7,190.3,89,253s141.7,94,247,94c104.7,0,186.3-31.3,245-94s88-147,88-253c0-106.7-28.7-191-86-253 c-58.7-64-141-96-247-96c-105.3,0-187.7,31.7-247,95S65.5,295,65.5,401z M318.5,401c0-62.7,3.3-108.3,10-137 c13.3-40.7,37.7-61,73-61c39.3,0,64.3,25.3,75,76c4,19.3,6,60,6,122c0,64-2,104.7-6,122c-10,50-35,75-75,75 c-32,0-53.8-12.8-65.5-38.5S318.5,481,318.5,401z" data-playerfill="true" stroke-width="5" stroke="#000000" fill="#000000"></path></symbol><use href="#SvgjsSymbol1087" x="25" y="25" transform="matrix(0.75,0,0,0.75,6.25,6.25)"></use><text x="0" y="192.1015625" svgjs:data="{&quot;leading&quot;:&quot;1.3&quot;}">piecepack-number-0</text></svg><svg width="200" height="200" x="600" y="5"><symbol viewBox="4.263256414560601e-14 -800 673.0000000000001 673.0000000000001" id="SvgjsSymbol1088"><path d="M175,456l-69,175l254,169h207V127H324v437L175,456z" data-playerfill="true" transform="matrix(1,1.2246467991473532e-16,1.2246467991473532e-16,-1,0,0)" stroke-width="5" stroke="#000000" fill="#000000"></path></symbol><use href="#SvgjsSymbol1088" x="25" y="25" transform="matrix(0.75,0,0,0.75,6.25,6.25)"></use><text x="0" y="192.1015625" svgjs:data="{&quot;leading&quot;:&quot;1.3&quot;}">piecepack-number-1</text></svg><svg width="200" height="200" x="800" y="5"><symbol viewBox="0.4898185188319104 -799.5243402392604 684.0243402392604 684.0243402392604" id="SvgjsSymbol1089"><path d="M333.5,277.5h275v-162h-532v189c60.7,29.3,126.3,66,197,110c61.3,38,92,79.3,92,124c0,62.7-41.7,94-125,94 c-32,0-82-9.7-150-29v175c70,13.3,141,20.3,213,21c87.3,0.7,156.7-13.7,208-43c64-37.3,96.3-96.3,97-177 c0.7-113.3-91-213.3-275-300V277.5z" data-playerfill="true" transform="matrix(1,1.2246467991473532e-16,1.2246467991473532e-16,-1,0,0)" stroke-width="5" stroke="#000000" fill="#000000"></path></symbol><use href="#SvgjsSymbol1089" x="25" y="25" transform="matrix(0.75,0,0,0.75,6.25,6.25)"></use><text x="0" y="192.1015625" svgjs:data="{&quot;leading&quot;:&quot;1.3&quot;}">piecepack-number-2</text></svg><svg width="200" height="200" x="1000" y="5"><symbol viewBox="0.013313946715186376 104 696 696" id="SvgjsSymbol1090"><path d="M168,380v147c18-1.3,36-2,54-2c36.7,0,63.7,2.7,81,8c32,6,48,22.3,48,49s-9.8,44.7-29.5,54S279,650,253,650 c-58.7,0-113-8.7-163-26v150c61.3,17.3,135,26,221,26c70,0,134.7-13.7,194-41c66.7-30.7,99.7-79.7,99-147 c-0.7-76.7-44-127.7-130-153v-2c94-22,140.3-73.7,139-155c-0.7-69.3-34.7-121.3-102-156c-52.7-28-117.3-42-194-42 c-84,0.7-162,10-234,28v157c45.3-18.7,102-28.3,170-29c29.3-0.7,52.7,2.3,70,9c25.3,10,38,27.3,38,52c-0.7,44-37.3,66-110,66 C223,387,195.3,384.7,168,380z" data-playerfill="true" transform="matrix(1,0,0,-1,0,904)" stroke-width="5" stroke="#000000" fill="#000000"></path></symbol><use href="#SvgjsSymbol1090" x="25" y="25" transform="matrix(0.75,0,0,0.75,6.25,6.25)"></use><text x="0" y="192.1015625" svgjs:data="{&quot;leading&quot;:&quot;1.3&quot;}">piecepack-number-3</text></svg><svg width="200" height="200" x="0" y="205"><symbol viewBox="0 -800 673 673" id="SvgjsSymbol1091"><path d="M140,412h168v197L140,412z M542,422h118V256H542V127H308v129H13v226l288,318h241V422z" data-playerfill="true" transform="matrix(1,0,0,-1,0,0)" stroke-width="5" stroke="#000000" fill="#000000"></path></symbol><use href="#SvgjsSymbol1091" x="25" y="25" transform="matrix(0.75,0,0,0.75,6.25,6.25)"></use><text x="0" y="192.1015625" svgjs:data="{&quot;leading&quot;:&quot;1.3&quot;}">piecepack-number-4</text></svg><svg width="200" height="200" x="200" y="205"><symbol viewBox="0.5063723989345021 -799.5 685.0057230828099 685.0057230828099" id="SvgjsSymbol1092"><path d="M570,799.5v-156H316v-105c23.3,2.7,48.3,4,75,4c62-0.7,112.5-19.8,151.5-57.5s58.2-87.5,57.5-149.5 c-0.7-79.3-33.7-138-99-176c-52.7-30.7-122-45.7-208-45c-70,0.7-139,10.3-207,29v153c47.3-12.7,94.3-19.3,141-20 c12,0,26.7,1.3,44,4c51.3,8,77,32.3,77,73c0,32.7-14.7,55.3-44,68c-21.3,9.3-51,14-89,14c-40.7,0-81-5-121-15v379H570z" data-playerfill="true" transform="matrix(1,0,0,-1,0,0)" stroke-width="5" stroke="#000000" fill="#000000"></path></symbol><use href="#SvgjsSymbol1092" x="25" y="25" transform="matrix(0.75,0,0,0.75,6.25,6.25)"></use><text x="0" y="192.1015625" svgjs:data="{&quot;leading&quot;:&quot;1.3&quot;}">piecepack-number-5</text></svg><svg width="200" height="200" x="400" y="205"><symbol viewBox="0.4905280570116588 -799.5 696.0189438859767 696.0189438859767" id="SvgjsSymbol1093"><path d="M600.5,781.5v-155c-59.3,15.3-115,23-167,23c-71.3,0-118.7-23-142-69c-5.3-10-10.3-31.7-15-65c30.7,26.7,81,40.3,151,41 c66.7,0,122-19,166-57c46-40,69-93,69-159c-0.7-77.3-32-137.7-94-181c-55.3-38-123.3-56.7-204-56c-98,1.3-177.5,32.8-238.5,94.5 S34.5,339.5,34.5,437.5c0,112,32.2,200.3,96.5,265s152.5,97,264.5,97C480.2,799.5,548.5,793.5,600.5,781.5z M440.5,340.5 c0,59.3-27.7,88.7-83,88c-54-0.7-81-31.7-81-93c0-25.3,7.3-46.2,22-62.5c14.7-16.3,34.3-24.5,59-24.5c26.7,0,47.3,9,62,27 C433.5,291.5,440.5,313.2,440.5,340.5z" data-playerfill="true" transform="matrix(1,0,0,-1,0,0)" stroke-width="5" stroke="#000000" fill="#000000"></path></symbol><use href="#SvgjsSymbol1093" x="25" y="25" transform="matrix(0.75,0,0,0.75,6.25,6.25)"></use><text x="0" y="192.1015625" svgjs:data="{&quot;leading&quot;:&quot;1.3&quot;}">piecepack-number-6</text></svg><svg width="200" height="200" x="600" y="205"><symbol viewBox="0 -800 673 673" id="SvgjsSymbol1094"><path d="M63,800h547V615L368,127H79l286,488H63V800z" data-playerfill="true" transform="matrix(1,0,0,-1,0,0)" stroke-width="5" stroke="#000000" fill="#000000"></path></symbol><use href="#SvgjsSymbol1094" x="25" y="25" transform="matrix(0.75,0,0,0.75,6.25,6.25)"></use><text x="0" y="192.1015625" svgjs:data="{&quot;leading&quot;:&quot;1.3&quot;}">piecepack-number-7</text></svg><svg width="200" height="200" x="800" y="205"><symbol viewBox="0.48987625507947996 -799.520247489841 696.020247489841 696.020247489841" id="SvgjsSymbol1095"><path d="M164.5,457.5v2c-82,26-123,78-123,156c0,52.7,22.3,95,67,127c36.7,25.3,83.7,42.3,141,51c26,4,58.7,6,98,6c199.3,1.3,300-60,302-184c1.3-76-39-128.3-121-157v-1c92-22,138-76.3,138-163c0-70.7-37.7-122.3-113-155c-56-24-124.7-36-206-36 c-76.7,0-147,13.7-211,41c-32,13.3-57.3,33-76,59c-20.7,27.3-30.7,57.7-30,91C31.2,385.8,75.8,440.2,164.5,457.5z M274.5,598.5 c0-22.7,6.5-41.3,19.5-56s30.8-22.3,53.5-23c46-0.7,69,25,69,77c0,50.7-23,76-69,76c-22,0-39.7-6.8-53-20.5 S274.5,620.5,274.5,598.5z M273.5,331.5c0-59.3,24.7-89,74-89c50.7,0,76,30.3,76,91c0,57.3-25.3,86-76,86 C298.2,419.5,273.5,390.2,273.5,331.5z" data-playerfill="true" transform="matrix(1,0,0,-1,0,0)" stroke-width="5" stroke="#000000" fill="#000000"></path></symbol><use href="#SvgjsSymbol1095" x="25" y="25" transform="matrix(0.75,0,0,0.75,6.25,6.25)"></use><text x="0" y="192.1015625" svgjs:data="{&quot;leading&quot;:&quot;1.3&quot;}">piecepack-number-8</text></svg><svg width="200" height="200" x="1000" y="205"><symbol viewBox="0 -800 696 696" id="SvgjsSymbol1096"><path d="M95,123v155c63.3-15.3,119.3-23,168-23c41.3,0,77,9.7,107,29c19.3,12.7,35.7,47.7,49,105c-20.7-16.7-46.7-27.3-78-32 c-28.7-6-53.3-9-74-9c-65.3,0-120,19.3-164,58c-46,40.7-69,93-69,157c0,78,31,138.3,93,181c54,37.3,122,56,204,56 c99.3,0,179.3-30.7,240-92s91-141.7,91-241c0-112.7-32.3-201.3-97-266s-153-97-265-97C226.7,104,158.3,110.3,95,123z M255,563 c0-26,7.5-47.2,22.5-63.5s35.2-24.2,60.5-23.5c54,0.7,81,31.7,81,93c0,58-27,87-81,87c-26,0-46.3-8.8-61-26.5S255,589.7,255,563z" data-playerfill="true" transform="matrix(1,0,0,-1,0,0)" stroke-width="5" stroke="#000000" fill="#000000"></path></symbol><use href="#SvgjsSymbol1096" x="25" y="25" transform="matrix(0.75,0,0,0.75,6.25,6.25)"></use><text x="0" y="192.1015625" svgjs:data="{&quot;leading&quot;:&quot;1.3&quot;}">piecepack-number-9</text></svg><svg width="200" height="200" x="0" y="405"><symbol viewBox="0 130 670 670" id="SvgjsSymbol1097"><path d="M335,130.5c-92.7,0-171.7,32.5-237,97.5S0,371.8,0,464.5C0,557.8,32.5,637,97.5,702s144.2,97.5,237.5,97.5 S507.5,767,572.5,702S670,557.8,670,464.5c0-92.7-32.7-171.5-98-236.5S427.7,130.5,335,130.5z M126,661.5c-52-55.3-78-121-78-197 c0-50.7,12.7-98,38-142s60-79,104-105c-22.7,20-40.3,42-53,66v1l-1,2c-20,40-30,79-30,117c0,30,7.7,60.3,23,91 c34,67.3,83.3,101,148,101c51.3,0,86.3-20.7,105-62c6-13.3,9-26.7,9-40c0-11.3-3.3-25-10-41v-2l-13-17c6-4.7,15-6.3,27-5 c26,2.7,46.3,19,61,49c8,16.7,12,34,12,52c0,26-6.3,51-19,75c-28.7,55.3-75.7,87.3-141,96c-14.7,2-27.7,3-39,3 C217.7,703.5,170,689.5,126,661.5z M559,285.5c42,52.7,63,112.3,63,179c0,50.7-12.3,97.8-37,141.5s-59,78.8-103,105.5 c20-20.7,35.7-42.3,47-65v-1c20-40,30-78.7,30-116c0-31.3-7-62-21-92c-28-60.7-72.7-93.7-134-99c-42-4-75.7,6.7-101,32 c-18,18-27,40-27,66v9l2,10c3.3,9.3,10,21,20,35l2,4c-1.3,6.7-9.3,10-24,10c-26,0-48-17.3-66-52l-1-1c-8-15.3-12-31.3-12-48 c0-50.7,21.7-93.3,65-128c41.3-32.7,87.7-49,139-49C454.3,226.5,507,246.2,559,285.5z" data-playerfill="true" stroke-width="5" stroke="#000000" fill="#000000"></path></symbol><use href="#SvgjsSymbol1097" x="25" y="25" transform="matrix(0.75,0,0,0.75,6.25,6.25)"></use><text x="0" y="192.1015625" svgjs:data="{&quot;leading&quot;:&quot;1.3&quot;}">piecepack-number-void</text></svg><svg width="200" height="200" x="200" y="405"><symbol viewBox="0 -800 707 707" id="SvgjsSymbol1098"><path d="M446,345c10.7-2,21-3,31-3c66,0,121,31.3,165,94c6-14.7,9-29.7,9-45c0-76-68.7-158-206-246c-28-18-58-35.3-90-52l-2,6l-1-6 c-56,29.3-105.7,60-149,92C104.3,259,55,327.7,55,391c0,15.3,3,30.3,9,45c44.7-62.7,99.7-94,165-94c10.7,0,21.3,1,32,3l49,140 l-108,5c-16.7-14.7-36.3-22-59-22c-24.7,0-45.7,8.7-63,26s-26,38.3-26,63s8.7,45.7,26,63s38.3,26,63,26c32.7,0,58-14,76-42h84 l-4,36c-18.7,17.3-29.7,34.7-33,52v4c-1.3,4.7-2,9.7-2,15c0,24.7,8.7,45.7,26,63s38.3,26,63,26s45.8-8.7,63.5-26s26.5-38.3,26.5-63 c0-4.7-0.7-9.7-2-15l-1-4c-4.7-18.7-15.7-36-33-52l-3-36h84c17.3,28,42.7,42,76,42c24.7,0,45.7-8.7,63-26s26-38.3,26-63 s-8.7-45.7-26-63s-38.3-26-63-26c-22.7,0-42.7,7.3-60,22l-107-5L446,345z" data-playerfill="true" transform="matrix(1,0,0,-1,0,0)" stroke-width="5" stroke="#000000" fill="#000000"></path></symbol><use href="#SvgjsSymbol1098" x="25" y="25" transform="matrix(0.75,0,0,0.75,6.25,6.25)"></use><text x="0" y="192.1015625" svgjs:data="{&quot;leading&quot;:&quot;1.3&quot;}">piecepack-suit-anchors</text></svg><svg width="200" height="200" x="400" y="405"><symbol viewBox="0 -800 657 657" id="SvgjsSymbol1099"><path d="M657,437.5c0-41.3-13.7-76.2-41-104.5s-61.7-42.5-103-42.5c-71.3,0-128.3,41.7-171,125c0-42.7,3-75,9-97 c16.7-62,55.7-107,117-135c16-7.3,44.3-14.7,85-22v-18H104v18c37.3,6,66,13.3,86,22c60.7,26.7,99.3,72,116,136c6,23.3,9,55.3,9,96 c-40.7-83.3-97.3-125-170-125c-40.7,0-75,14.3-103,43s-42,63.3-42,104c0,42,11.7,77.2,35,105.5s55.7,42.5,97,42.5 c14,0,31-4.3,51-13l35-15c-24.7,36-37,69-37,99c0,40,14.3,73.8,43,101.5s63.3,41.5,104,41.5c42.7,0,78-13.3,106-40s42-61,42-103 c0-30.7-12.3-63.7-37-99l35,14c23.3,9.3,40.3,14,51,14c40,0,72-14.5,96-43.5S657,478.2,657,437.5z" data-playerfill="true" transform="matrix(1,0,0,-1,0,0)" stroke-width="5" stroke="#000000" fill="#000000"></path></symbol><use href="#SvgjsSymbol1099" x="25" y="25" transform="matrix(0.75,0,0,0.75,6.25,6.25)"></use><text x="0" y="192.1015625" svgjs:data="{&quot;leading&quot;:&quot;1.3&quot;}">piecepack-suit-clubs</text></svg><svg width="200" height="200" x="600" y="405"><symbol viewBox="0.4775914634146261 -799.5 715.0448170731707 715.0448170731707" id="SvgjsSymbol1100"><path d="M670,470.5c0-15.3-2.3-32.3-7-51c-23.3-94.7-48.7-156-76-184l37-59v-10c0-23.3-7.8-43-23.5-59s-35.2-23.7-58.5-23l-183,5 l-185-5c-23.3-0.7-42.8,6.8-58.5,22.5S92,142.5,92,166.5v10l37,59c-27.3,28-52.7,89.3-76,184c-4.7,18.7-7,35.7-7,51 c0,72,41.3,108,124,108c22.7,0,48-3,76-9l4,15h-38v155h70v60h152v-60h70v-155h-37l3-15c28,6,53.3,9,76,9 C628.7,578.5,670,542.5,670,470.5z M601,434.5c3.3,13.3,5,25.3,5,36c0,30-20.3,45-61,45c-25.3,0-55.7-5-91-15l-32-9l-35,158h53v26 h-59l-11,51v9h-24v-9l-11-51h-59v-26h53l-34-158l-33,9c-36.7,10-67,15-91,15c-40.7,0-61-15-61-45c0-10.7,1.7-22.7,5-36 c20-79.3,39.3-130,58-152l89,44l-104-166c2-7.3,7.3-11,16-11l185,4l183-4c8.7,0,14.3,3.7,17,11l-104,166l89-44 C562,304.5,581,355.2,601,434.5z" data-playerfill="true" transform="matrix(1,0,0,-1,0,0)" stroke-width="5" stroke="#000000" fill="#000000"></path></symbol><use href="#SvgjsSymbol1100" x="25" y="25" transform="matrix(0.75,0,0,0.75,6.25,6.25)"></use><text x="0" y="192.1015625" svgjs:data="{&quot;leading&quot;:&quot;1.3&quot;}">piecepack-suit-crowns</text></svg><svg width="200" height="200" x="800" y="405"><symbol viewBox="0 110 690 690" id="SvgjsSymbol1101"><path d="M349.5,800l264-343l-264-347l-273,347L349.5,800z M348.5,223l177,232l-178,234l-181-231L348.5,223z" data-playerfill="true" stroke-width="5" stroke="#000000" fill="#000000"></path></symbol><use href="#SvgjsSymbol1101" x="25" y="25" transform="matrix(0.75,0,0,0.75,6.25,6.25)"></use><text x="0" y="192.1015625" svgjs:data="{&quot;leading&quot;:&quot;1.3&quot;}">piecepack-suit-diamonds</text></svg><svg width="200" height="200" x="1000" y="405"><symbol viewBox="0.10000000000014353 -799.8999999999999 451.79999999999984 451.79999999999984" id="SvgjsSymbol1102"><path d="M384.1,614.5c12.4-10,18.6-22,18.6-36c0-18.4-13.8-40.6-41.4-66.6c0.4,6,0.6,11.6,0.6,16.8c0,30-7,45-21,45 c-15.2,0-35.8-15.8-61.8-47.4c-8.4-16.8-12.6-34.8-12.6-54l-0.6-2.4h22.2v-13.8h-44.4v-20.4c2.4-15.6,8.6-23.4,18.6-23.4 c11.6,0,26.2,9.2,43.8,27.6c0.8-6.8-0.2-14-3-21.6c-4.8-12.8-11.4-21-19.8-24.6c-16-6.8-27.4-7.2-34.2-1.2c0.8-5.2,1.2-10,1.2-14.4 c0-14.8-4.4-24.4-13.2-28.8v-1.2h-22.8v1.2c-8.8,4.4-13.2,14-13.2,28.8c0,4.4,0.6,9.2,1.8,14.4c-3.2-2.8-7.6-4.2-13.2-4.2 c-6,0-13.2,1.8-21.6,5.4c-6,6-12.4,14.2-19.2,24.6c-2.8,6.8-4,14-3.6,21.6c18-18.4,32.6-27.6,43.8-27.6c10,0,16.4,7.8,19.2,23.4 v20.4h-44.4v13.8h21.6v2.4c0,19.2-4.4,37.2-13.2,54c-26,31.6-46.6,47.4-61.8,47.4c-13.6,0-20.4-14.6-20.4-43.8 c0-5.6,0.2-11.6,0.6-18c-27.6,26-41.4,48.2-41.4,66.6c0,14.4,5.9,26.2,17.7,35.4c11.8,9.2,24.9,13.8,39.3,13.8 c34,0,59-19.2,75-57.6c8.8-21.6,15.6-55,20.4-100.2h6.6v39c0.4,4,0.6,8.2,0.6,12.6c0,20.8-5.6,50.8-16.8,90c-12,42-18.2,66-18.6,72 c-1.6,22.8,7,43.4,25.8,61.8c8.4,8.4,17,25.6,25.8,51.6v3l0.6-1.2l0.6,1.2v-3c8.8-26,17.4-43.2,25.8-51.6 c18.8-18.8,27.4-39.4,25.8-61.8c-1.2-16.4-7.4-43.2-18.6-80.4c-10.8-34.4-16.2-61.6-16.2-81.6c0-4.4,0.2-8.6,0.6-12.6v-39h6.6 c4.8,44.8,11.8,78,21,99.6c15.6,38.8,40.2,58.2,73.8,58.2C360.3,627.7,373.3,623.3,384.1,614.5z" data-playerfill="true" transform="matrix(1,0,0,-1,0,0)" stroke-width="5" stroke="#000000" fill="#000000"></path></symbol><use href="#SvgjsSymbol1102" x="25" y="25" transform="matrix(0.75,0,0,0.75,6.25,6.25)"></use><text x="0" y="192.1015625" svgjs:data="{&quot;leading&quot;:&quot;1.3&quot;}">piecepack-suit-fleurdelis</text></svg><svg width="200" height="200" x="0" y="605"><symbol viewBox="0 -800 671 671" id="SvgjsSymbol1103"><path d="M632.5,612c0-62-26.7-126-80-192l-91-113l-125-178l-19,27c-18,28-53.7,78-107,150l-90,114c-54.7,69.3-82,133.3-82,192 c0,56,14.8,101.3,44.5,136s72.2,52,127.5,52c50,0,91.7-17,125-51c33.3,34,75.7,51,127,51c55.3,0,98-18,128-54 C618.5,712.7,632.5,668,632.5,612z M499.5,464c44,53.3,66,102.7,66,148c0,34.7-8,62.7-24,84c-18,24-43.7,36-77,36 c-50.7,0-86-24.7-106-74c-9.3-24-17-36-23-36c-4.7,0-9,3.3-13,10l-10,26c-18.7,49.3-53.7,74-105,74c-33.3,0-59-12-77-36 c-16-21.3-24-49.3-24-84c0-43.3,22-92.7,66-148l85-107l78-106C383.5,319,438.2,390,499.5,464z" data-playerfill="true" transform="matrix(1,0,0,-1,0,0)" stroke-width="5" stroke="#000000" fill="#000000"></path></symbol><use href="#SvgjsSymbol1103" x="25" y="25" transform="matrix(0.75,0,0,0.75,6.25,6.25)"></use><text x="0" y="192.1015625" svgjs:data="{&quot;leading&quot;:&quot;1.3&quot;}">piecepack-suit-hearts</text></svg><svg width="200" height="200" x="200" y="605"><symbol viewBox="0 -800 645 645" id="SvgjsSymbol1104"><path d="M459,291c69.3,0,128,25.3,176,76c-23.3-64-62.5-115.3-117.5-154S401,155,333,155c-89.3,0-165.5,31.3-228.5,94 S10,387.7,10,477c0,90,31.3,166.3,94,229s139,94,229,94c40.7,0,80.7-7.7,120-23c-66.7-2-122.8-26.3-168.5-73S216,600.7,216,534 c0-68,23.5-125.5,70.5-172.5S391,291,459,291z" data-playerfill="true" transform="matrix(1,0,0,-1,0,0)" stroke-width="5" stroke="#000000" fill="#000000"></path></symbol><use href="#SvgjsSymbol1104" x="25" y="25" transform="matrix(0.75,0,0,0.75,6.25,6.25)"></use><text x="0" y="192.1015625" svgjs:data="{&quot;leading&quot;:&quot;1.3&quot;}">piecepack-suit-moons</text></svg><svg width="200" height="200" x="400" y="605"><symbol viewBox="0 -800 683 683" id="SvgjsSymbol1105"><path d="M611,395c0-35.3-11.7-65-35-89s-52.7-36-88-36c-55.3,0-99,25.7-131,77c0-32,3.8-57.7,11.5-77s22.7-40.5,45-63.5 S459,167,483,157c18.7-8,46.3-15,83-21v-19H117v19c60.7,9.3,109.7,31,147,65c41.3,38,62,86.7,62,146c-32.7-51.3-76.3-77-131-77 c-36,0-65.5,11.8-88.5,35.5S72,359,72,395c0,34,13.7,68.7,41,104c15.3,19.3,42,46.3,80,81c46.7,42,78,74.3,94,97 c20.7,29.3,38.7,70.3,54,123c12-48,30.3-89,55-123c16.7-23.3,48-56,94-98c40.7-37.3,67.3-64,80-80C597.3,464.3,611,429.7,611,395z" data-playerfill="true" transform="matrix(1,0,0,-1,0,0)" stroke-width="5" stroke="#000000" fill="#000000"></path></symbol><use href="#SvgjsSymbol1105" x="25" y="25" transform="matrix(0.75,0,0,0.75,6.25,6.25)"></use><text x="0" y="192.1015625" svgjs:data="{&quot;leading&quot;:&quot;1.3&quot;}">piecepack-suit-spades</text></svg><svg width="200" height="200" x="600" y="605"><symbol viewBox="0 -800 729 729" id="SvgjsSymbol1106"><path d="M729,517L504,354l86-266L365,252L139,88l88,266L0,517h280l84,266l87-266H729z M547,459H408l-44,133l-43-133H181l114-83 l-43-134l113,82l110-80l-41,131L547,459z" data-playerfill="true" transform="matrix(1,0,0,-1,0,0)" stroke-width="5" stroke="#000000" fill="#000000"></path></symbol><use href="#SvgjsSymbol1106" x="25" y="25" transform="matrix(0.75,0,0,0.75,6.25,6.25)"></use><text x="0" y="192.1015625" svgjs:data="{&quot;leading&quot;:&quot;1.3&quot;}">piecepack-suit-stars</text></svg><svg width="200" height="200" x="800" y="605"><symbol viewBox="0 -800 758 758" id="SvgjsSymbol1107"><path d="M757.5,410l-106-61c-9.3-34-24.3-65.3-45-94l36-106l-127,26c-26.7-15.3-56.3-25.7-89-31l-58-102l-62,107 c-32,8.7-62,22.7-90,42l-113-30l32,119c-16.7,28.7-28,60-34,94l-101,58l106,61c8.7,32.7,23,63,43,91l-30,113l118-32 c29.3,16.7,60.7,28,94,34l59,101l61-107c32-8.7,62-22.7,90-42l113,30l-32-119c16.7-28.7,28-60,34-94L757.5,410z M379.5,205 c60,0,111,21,153,63s63,93,63,153s-21,111-63,153s-93,63-153,63s-111-21-153-63s-63-93-63-153s21-111,63-153S319.5,205,379.5,205z" data-playerfill="true" transform="matrix(1,0,0,-1,0,0)" stroke-width="5" stroke="#000000" fill="#000000"></path></symbol><use href="#SvgjsSymbol1107" x="25" y="25" transform="matrix(0.75,0,0,0.75,6.25,6.25)"></use><text x="0" y="192.1015625" svgjs:data="{&quot;leading&quot;:&quot;1.3&quot;}">piecepack-suit-suns</text></svg></svg></svg>
