<svg id="SvgjsSvg1006" width="100%" height="100%" xmlns="http://www.w3.org/2000/svg" version="1.1" xmlns:xlink="http://www.w3.org/1999/xlink" xmlns:svgjs="http://svgjs.com/svgjs" viewBox="-29.5 -33.484375 259 266.984375"><defs id="SvgjsDefs1007"><rect id="tileLight" width="50" height="50" fill-opacity="0" fill="#000000"></rect><rect id="tileDark" width="50" height="50" fill-opacity="0.4" fill="#000000"></rect><g id="piece" data-cellsize="100"><circle id="SvgjsCircle1073" r="50" cx="50" cy="50" fill-opacity="0" fill="#000000"></circle><circle id="SvgjsCircle1074" r="42.5" cx="50" cy="50" data-playerfill="true" fill="#ffffff" stroke="#000000" stroke-width="2"></circle></g><g id="Y" data-cellsize="100"><circle id="SvgjsCircle1096" r="50" cx="50" cy="50" fill-opacity="0" fill="#000000"></circle><circle id="SvgjsCircle1094" r="42.5" cx="50" cy="50" data-playerfill="true" fill="#ffff33" stroke="#000000" stroke-width="2"></circle></g><g id="R" data-cellsize="100"><circle id="SvgjsCircle1090" r="50" cx="50" cy="50" fill-opacity="0" fill="#000000"></circle><circle id="SvgjsCircle1088" r="42.5" cx="50" cy="50" data-playerfill="true" fill="#e41a1c" stroke="#000000" stroke-width="2"></circle></g><g id="G" data-cellsize="100"><circle id="SvgjsCircle1084" r="50" cx="50" cy="50" fill-opacity="0" fill="#000000"></circle><circle id="SvgjsCircle1082" r="42.5" cx="50" cy="50" data-playerfill="true" fill="#4daf4a" stroke="#000000" stroke-width="2"></circle></g><g id="B" data-cellsize="100"><circle id="SvgjsCircle1078" r="50" cx="50" cy="50" fill-opacity="0" fill="#000000"></circle><circle id="SvgjsCircle1076" r="42.5" cx="50" cy="50" data-playerfill="true" fill="#377eb8" stroke="#000000" stroke-width="2"></circle></g></defs><g id="board"><g id="labels"><text id="SvgjsText1012" font-family="Helvetica, Arial, sans-serif" x="20.5" y="-40.296875" svgjs:data="{&quot;leading&quot;:&quot;1.3&quot;}"><tspan id="SvgjsTspan1013" dy="20.8" x="20.5" svgjs:data="{&quot;newLined&quot;:true}">a</tspan></text><text id="SvgjsText1014" font-family="Helvetica, Arial, sans-serif" x="20.5" y="209.703125" svgjs:data="{&quot;leading&quot;:&quot;1.3&quot;}"><tspan id="SvgjsTspan1015" dy="20.8" x="20.5" svgjs:data="{&quot;newLined&quot;:true}">a</tspan></text><text id="SvgjsText1016" font-family="Helvetica, Arial, sans-serif" x="70.5" y="-40.296875" svgjs:data="{&quot;leading&quot;:&quot;1.3&quot;}"><tspan id="SvgjsTspan1017" dy="20.8" x="70.5" svgjs:data="{&quot;newLined&quot;:true}">b</tspan></text><text id="SvgjsText1018" font-family="Helvetica, Arial, sans-serif" x="70.5" y="209.703125" svgjs:data="{&quot;leading&quot;:&quot;1.3&quot;}"><tspan id="SvgjsTspan1019" dy="20.8" x="70.5" svgjs:data="{&quot;newLined&quot;:true}">b</tspan></text><text id="SvgjsText1020" font-family="Helvetica, Arial, sans-serif" x="120.5" y="-40.296875" svgjs:data="{&quot;leading&quot;:&quot;1.3&quot;}"><tspan id="SvgjsTspan1021" dy="20.8" x="120.5" svgjs:data="{&quot;newLined&quot;:true}">c</tspan></text><text id="SvgjsText1022" font-family="Helvetica, Arial, sans-serif" x="120.5" y="209.703125" svgjs:data="{&quot;leading&quot;:&quot;1.3&quot;}"><tspan id="SvgjsTspan1023" dy="20.8" x="120.5" svgjs:data="{&quot;newLined&quot;:true}">c</tspan></text><text id="SvgjsText1024" font-family="Helvetica, Arial, sans-serif" x="170.5" y="-40.296875" svgjs:data="{&quot;leading&quot;:&quot;1.3&quot;}"><tspan id="SvgjsTspan1025" dy="20.8" x="170.5" svgjs:data="{&quot;newLined&quot;:true}">d</tspan></text><text id="SvgjsText1026" font-family="Helvetica, Arial, sans-serif" x="170.5" y="209.703125" svgjs:data="{&quot;leading&quot;:&quot;1.3&quot;}"><tspan id="SvgjsTspan1027" dy="20.8" x="170.5" svgjs:data="{&quot;newLined&quot;:true}">d</tspan></text><text id="SvgjsText1028" font-family="Helvetica, Arial, sans-serif" x="-29.5" y="9.703125" svgjs:data="{&quot;leading&quot;:&quot;1.3&quot;}"><tspan id="SvgjsTspan1029" dy="20.8" x="-29.5" svgjs:data="{&quot;newLined&quot;:true}">4</tspan></text><text id="SvgjsText1030" font-family="Helvetica, Arial, sans-serif" x="220.5" y="9.703125" svgjs:data="{&quot;leading&quot;:&quot;1.3&quot;}"><tspan id="SvgjsTspan1031" dy="20.8" x="220.5" svgjs:data="{&quot;newLined&quot;:true}">4</tspan></text><text id="SvgjsText1032" font-family="Helvetica, Arial, sans-serif" x="-29.5" y="59.703125" svgjs:data="{&quot;leading&quot;:&quot;1.3&quot;}"><tspan id="SvgjsTspan1033" dy="20.8" x="-29.5" svgjs:data="{&quot;newLined&quot;:true}">3</tspan></text><text id="SvgjsText1034" font-family="Helvetica, Arial, sans-serif" x="220.5" y="59.703125" svgjs:data="{&quot;leading&quot;:&quot;1.3&quot;}"><tspan id="SvgjsTspan1035" dy="20.8" x="220.5" svgjs:data="{&quot;newLined&quot;:true}">3</tspan></text><text id="SvgjsText1036" font-family="Helvetica, Arial, sans-serif" x="-29.5" y="109.703125" svgjs:data="{&quot;leading&quot;:&quot;1.3&quot;}"><tspan id="SvgjsTspan1037" dy="20.8" x="-29.5" svgjs:data="{&quot;newLined&quot;:true}">2</tspan></text><text id="SvgjsText1038" font-family="Helvetica, Arial, sans-serif" x="220.5" y="109.703125" svgjs:data="{&quot;leading&quot;:&quot;1.3&quot;}"><tspan id="SvgjsTspan1039" dy="20.8" x="220.5" svgjs:data="{&quot;newLined&quot;:true}">2</tspan></text><text id="SvgjsText1040" font-family="Helvetica, Arial, sans-serif" x="-29.4453125" y="159.703125" svgjs:data="{&quot;leading&quot;:&quot;1.3&quot;}"><tspan id="SvgjsTspan1041" dy="20.8" x="-29.4453125" svgjs:data="{&quot;newLined&quot;:true}">1</tspan></text><text id="SvgjsText1042" font-family="Helvetica, Arial, sans-serif" x="220.5546875" y="159.703125" svgjs:data="{&quot;leading&quot;:&quot;1.3&quot;}"><tspan id="SvgjsTspan1043" dy="20.8" x="220.5546875" svgjs:data="{&quot;newLined&quot;:true}">1</tspan></text></g><g id="tiles"><use id="SvgjsUse1045" xlink:href="#tileLight" x="0" y="0"></use><use id="SvgjsUse1046" xlink:href="#tileDark" x="50" y="0"></use><use id="SvgjsUse1047" xlink:href="#tileLight" x="100" y="0"></use><use id="SvgjsUse1048" xlink:href="#tileDark" x="150" y="0"></use><use id="SvgjsUse1049" xlink:href="#tileDark" x="0" y="50"></use><use id="SvgjsUse1050" xlink:href="#tileLight" x="50" y="50"></use><use id="SvgjsUse1051" xlink:href="#tileDark" x="100" y="50"></use><use id="SvgjsUse1052" xlink:href="#tileLight" x="150" y="50"></use><use id="SvgjsUse1053" xlink:href="#tileLight" x="0" y="100"></use><use id="SvgjsUse1054" xlink:href="#tileDark" x="50" y="100"></use><use id="SvgjsUse1055" xlink:href="#tileLight" x="100" y="100"></use><use id="SvgjsUse1056" xlink:href="#tileDark" x="150" y="100"></use><use id="SvgjsUse1057" xlink:href="#tileDark" x="0" y="150"></use><use id="SvgjsUse1058" xlink:href="#tileLight" x="50" y="150"></use><use id="SvgjsUse1059" xlink:href="#tileDark" x="100" y="150"></use><use id="SvgjsUse1060" xlink:href="#tileLight" x="150" y="150"></use></g></g><g id="gridlines"><line id="SvgjsLine1062" x1="0" y1="0" x2="200" y2="0" stroke="#000000" stroke-width="1"></line><line id="SvgjsLine1063" x1="0" y1="50" x2="200" y2="50" stroke="#000000" stroke-width="1"></line><line id="SvgjsLine1064" x1="0" y1="100" x2="200" y2="100" stroke="#000000" stroke-width="1"></line><line id="SvgjsLine1065" x1="0" y1="150" x2="200" y2="150" stroke="#000000" stroke-width="1"></line><line id="SvgjsLine1066" x1="0" y1="200" x2="200" y2="200" stroke="#000000" stroke-width="1"></line><line id="SvgjsLine1067" x1="0" y1="0" x2="0" y2="200" stroke="#000000" stroke-width="1"></line><line id="SvgjsLine1068" x1="50" y1="0" x2="50" y2="200" stroke="#000000" stroke-width="1"></line><line id="SvgjsLine1069" x1="100" y1="0" x2="100" y2="200" stroke="#000000" stroke-width="1"></line><line id="SvgjsLine1070" x1="150" y1="0" x2="150" y2="200" stroke="#000000" stroke-width="1"></line><line id="SvgjsLine1071" x1="200" y1="0" x2="200" y2="200" stroke="#000000" stroke-width="1"></line></g><g id="pieces"><use id="SvgjsUse1100" xlink:href="#B" x="-25" y="-25" transform="matrix(0.5,0,0,0.5,12.5,12.5)"></use><use id="SvgjsUse1101" xlink:href="#B" x="25" y="-25" transform="matrix(0.5,0,0,0.5,37.5,12.5)"></use><use id="SvgjsUse1102" xlink:href="#G" x="75" y="-25" transform="matrix(0.5,0,0,0.5,62.5,12.5)"></use><use id="SvgjsUse1103" xlink:href="#G" x="125" y="-25" transform="matrix(0.5,0,0,0.5,87.5,12.5)"></use><use id="SvgjsUse1104" xlink:href="#B" x="-25" y="25" transform="matrix(0.5,0,0,0.5,12.5,37.5)"></use><use id="SvgjsUse1105" xlink:href="#G" x="125" y="25" transform="matrix(0.5,0,0,0.5,87.5,37.5)"></use><use id="SvgjsUse1106" xlink:href="#Y" x="-25" y="75" transform="matrix(0.5,0,0,0.5,12.5,62.5)"></use><use id="SvgjsUse1107" xlink:href="#R" x="125" y="75" transform="matrix(0.5,0,0,0.5,87.5,62.5)"></use><use id="SvgjsUse1108" xlink:href="#Y" x="-25" y="125" transform="matrix(0.5,0,0,0.5,12.5,87.5)"></use><use id="SvgjsUse1109" xlink:href="#Y" x="25" y="125" transform="matrix(0.5,0,0,0.5,37.5,87.5)"></use><use id="SvgjsUse1110" xlink:href="#R" x="75" y="125" transform="matrix(0.5,0,0,0.5,62.5,87.5)"></use><use id="SvgjsUse1111" xlink:href="#R" x="125" y="125" transform="matrix(0.5,0,0,0.5,87.5,87.5)"></use></g></svg>