<svg id="SvgjsSvg1218" width="100%" height="100%" xmlns="http://www.w3.org/2000/svg" version="1.1" xmlns:xlink="http://www.w3.org/1999/xlink" xmlns:svgjs="http://svgjs.com/svgjs" viewBox="-29.5 -33.484375 259 266.984375"><defs id="SvgjsDefs1219"><rect id="tileLight" width="50" height="50" fill-opacity="0" fill="#000000"></rect><rect id="tileDark" width="50" height="50" fill-opacity="0.4" fill="#000000"></rect><g id="piece" data-cellsize="100"><circle id="SvgjsCircle1285" r="50" cx="50" cy="50" fill-opacity="0" fill="#000000"></circle><circle id="SvgjsCircle1286" r="42.5" cx="50" cy="50" data-playerfill="true" fill="#ffffff" stroke="#000000" stroke-width="2"></circle></g><g id="Y" data-cellsize="100"><circle id="SvgjsCircle1308" r="50" cx="50" cy="50" fill-opacity="0" fill="#000000"></circle><circle id="SvgjsCircle1306" r="42.5" cx="50" cy="50" data-playerfill="true" fill="#018571" stroke="#000000" stroke-width="2"></circle></g><g id="R" data-cellsize="100"><circle id="SvgjsCircle1302" r="50" cx="50" cy="50" fill-opacity="0" fill="#000000"></circle><circle id="SvgjsCircle1300" r="42.5" cx="50" cy="50" data-playerfill="true" fill="#a6611a" stroke="#000000" stroke-width="2"></circle></g><g id="G" data-cellsize="100"><circle id="SvgjsCircle1296" r="50" cx="50" cy="50" fill-opacity="0" fill="#000000"></circle><circle id="SvgjsCircle1294" r="42.5" cx="50" cy="50" data-playerfill="true" fill="#dfc27d" stroke="#000000" stroke-width="2"></circle></g><g id="B" data-cellsize="100"><circle id="SvgjsCircle1290" r="50" cx="50" cy="50" fill-opacity="0" fill="#000000"></circle><circle id="SvgjsCircle1288" r="42.5" cx="50" cy="50" data-playerfill="true" fill="#80cdc1" stroke="#000000" stroke-width="2"></circle></g></defs><g id="board"><g id="labels"><text id="SvgjsText1224" font-family="Helvetica, Arial, sans-serif" x="20.5" y="-40.296875" svgjs:data="{&quot;leading&quot;:&quot;1.3&quot;}"><tspan id="SvgjsTspan1225" dy="20.8" x="20.5" svgjs:data="{&quot;newLined&quot;:true}">a</tspan></text><text id="SvgjsText1226" font-family="Helvetica, Arial, sans-serif" x="20.5" y="209.703125" svgjs:data="{&quot;leading&quot;:&quot;1.3&quot;}"><tspan id="SvgjsTspan1227" dy="20.8" x="20.5" svgjs:data="{&quot;newLined&quot;:true}">a</tspan></text><text id="SvgjsText1228" font-family="Helvetica, Arial, sans-serif" x="70.5" y="-40.296875" svgjs:data="{&quot;leading&quot;:&quot;1.3&quot;}"><tspan id="SvgjsTspan1229" dy="20.8" x="70.5" svgjs:data="{&quot;newLined&quot;:true}">b</tspan></text><text id="SvgjsText1230" font-family="Helvetica, Arial, sans-serif" x="70.5" y="209.703125" svgjs:data="{&quot;leading&quot;:&quot;1.3&quot;}"><tspan id="SvgjsTspan1231" dy="20.8" x="70.5" svgjs:data="{&quot;newLined&quot;:true}">b</tspan></text><text id="SvgjsText1232" font-family="Helvetica, Arial, sans-serif" x="120.5" y="-40.296875" svgjs:data="{&quot;leading&quot;:&quot;1.3&quot;}"><tspan id="SvgjsTspan1233" dy="20.8" x="120.5" svgjs:data="{&quot;newLined&quot;:true}">c</tspan></text><text id="SvgjsText1234" font-family="Helvetica, Arial, sans-serif" x="120.5" y="209.703125" svgjs:data="{&quot;leading&quot;:&quot;1.3&quot;}"><tspan id="SvgjsTspan1235" dy="20.8" x="120.5" svgjs:data="{&quot;newLined&quot;:true}">c</tspan></text><text id="SvgjsText1236" font-family="Helvetica, Arial, sans-serif" x="170.5" y="-40.296875" svgjs:data="{&quot;leading&quot;:&quot;1.3&quot;}"><tspan id="SvgjsTspan1237" dy="20.8" x="170.5" svgjs:data="{&quot;newLined&quot;:true}">d</tspan></text><text id="SvgjsText1238" font-family="Helvetica, Arial, sans-serif" x="170.5" y="209.703125" svgjs:data="{&quot;leading&quot;:&quot;1.3&quot;}"><tspan id="SvgjsTspan1239" dy="20.8" x="170.5" svgjs:data="{&quot;newLined&quot;:true}">d</tspan></text><text id="SvgjsText1240" font-family="Helvetica, Arial, sans-serif" x="-29.5" y="9.703125" svgjs:data="{&quot;leading&quot;:&quot;1.3&quot;}"><tspan id="SvgjsTspan1241" dy="20.8" x="-29.5" svgjs:data="{&quot;newLined&quot;:true}">4</tspan></text><text id="SvgjsText1242" font-family="Helvetica, Arial, sans-serif" x="220.5" y="9.703125" svgjs:data="{&quot;leading&quot;:&quot;1.3&quot;}"><tspan id="SvgjsTspan1243" dy="20.8" x="220.5" svgjs:data="{&quot;newLined&quot;:true}">4</tspan></text><text id="SvgjsText1244" font-family="Helvetica, Arial, sans-serif" x="-29.5" y="59.703125" svgjs:data="{&quot;leading&quot;:&quot;1.3&quot;}"><tspan id="SvgjsTspan1245" dy="20.8" x="-29.5" svgjs:data="{&quot;newLined&quot;:true}">3</tspan></text><text id="SvgjsText1246" font-family="Helvetica, Arial, sans-serif" x="220.5" y="59.703125" svgjs:data="{&quot;leading&quot;:&quot;1.3&quot;}"><tspan id="SvgjsTspan1247" dy="20.8" x="220.5" svgjs:data="{&quot;newLined&quot;:true}">3</tspan></text><text id="SvgjsText1248" font-family="Helvetica, Arial, sans-serif" x="-29.5" y="109.703125" svgjs:data="{&quot;leading&quot;:&quot;1.3&quot;}"><tspan id="SvgjsTspan1249" dy="20.8" x="-29.5" svgjs:data="{&quot;newLined&quot;:true}">2</tspan></text><text id="SvgjsText1250" font-family="Helvetica, Arial, sans-serif" x="220.5" y="109.703125" svgjs:data="{&quot;leading&quot;:&quot;1.3&quot;}"><tspan id="SvgjsTspan1251" dy="20.8" x="220.5" svgjs:data="{&quot;newLined&quot;:true}">2</tspan></text><text id="SvgjsText1252" font-family="Helvetica, Arial, sans-serif" x="-29.4453125" y="159.703125" svgjs:data="{&quot;leading&quot;:&quot;1.3&quot;}"><tspan id="SvgjsTspan1253" dy="20.8" x="-29.4453125" svgjs:data="{&quot;newLined&quot;:true}">1</tspan></text><text id="SvgjsText1254" font-family="Helvetica, Arial, sans-serif" x="220.5546875" y="159.703125" svgjs:data="{&quot;leading&quot;:&quot;1.3&quot;}"><tspan id="SvgjsTspan1255" dy="20.8" x="220.5546875" svgjs:data="{&quot;newLined&quot;:true}">1</tspan></text></g><g id="tiles"><use id="SvgjsUse1257" xlink:href="#tileLight" x="0" y="0"></use><use id="SvgjsUse1258" xlink:href="#tileDark" x="50" y="0"></use><use id="SvgjsUse1259" xlink:href="#tileLight" x="100" y="0"></use><use id="SvgjsUse1260" xlink:href="#tileDark" x="150" y="0"></use><use id="SvgjsUse1261" xlink:href="#tileDark" x="0" y="50"></use><use id="SvgjsUse1262" xlink:href="#tileLight" x="50" y="50"></use><use id="SvgjsUse1263" xlink:href="#tileDark" x="100" y="50"></use><use id="SvgjsUse1264" xlink:href="#tileLight" x="150" y="50"></use><use id="SvgjsUse1265" xlink:href="#tileLight" x="0" y="100"></use><use id="SvgjsUse1266" xlink:href="#tileDark" x="50" y="100"></use><use id="SvgjsUse1267" xlink:href="#tileLight" x="100" y="100"></use><use id="SvgjsUse1268" xlink:href="#tileDark" x="150" y="100"></use><use id="SvgjsUse1269" xlink:href="#tileDark" x="0" y="150"></use><use id="SvgjsUse1270" xlink:href="#tileLight" x="50" y="150"></use><use id="SvgjsUse1271" xlink:href="#tileDark" x="100" y="150"></use><use id="SvgjsUse1272" xlink:href="#tileLight" x="150" y="150"></use></g></g><g id="gridlines"><line id="SvgjsLine1274" x1="0" y1="0" x2="200" y2="0" stroke="#000000" stroke-width="1"></line><line id="SvgjsLine1275" x1="0" y1="50" x2="200" y2="50" stroke="#000000" stroke-width="1"></line><line id="SvgjsLine1276" x1="0" y1="100" x2="200" y2="100" stroke="#000000" stroke-width="1"></line><line id="SvgjsLine1277" x1="0" y1="150" x2="200" y2="150" stroke="#000000" stroke-width="1"></line><line id="SvgjsLine1278" x1="0" y1="200" x2="200" y2="200" stroke="#000000" stroke-width="1"></line><line id="SvgjsLine1279" x1="0" y1="0" x2="0" y2="200" stroke="#000000" stroke-width="1"></line><line id="SvgjsLine1280" x1="50" y1="0" x2="50" y2="200" stroke="#000000" stroke-width="1"></line><line id="SvgjsLine1281" x1="100" y1="0" x2="100" y2="200" stroke="#000000" stroke-width="1"></line><line id="SvgjsLine1282" x1="150" y1="0" x2="150" y2="200" stroke="#000000" stroke-width="1"></line><line id="SvgjsLine1283" x1="200" y1="0" x2="200" y2="200" stroke="#000000" stroke-width="1"></line></g><g id="pieces"><use id="SvgjsUse1312" xlink:href="#B" x="-25" y="-25" transform="matrix(0.5,0,0,0.5,12.5,12.5)"></use><use id="SvgjsUse1313" xlink:href="#B" x="25" y="-25" transform="matrix(0.5,0,0,0.5,37.5,12.5)"></use><use id="SvgjsUse1314" xlink:href="#G" x="75" y="-25" transform="matrix(0.5,0,0,0.5,62.5,12.5)"></use><use id="SvgjsUse1315" xlink:href="#G" x="125" y="-25" transform="matrix(0.5,0,0,0.5,87.5,12.5)"></use><use id="SvgjsUse1316" xlink:href="#B" x="-25" y="25" transform="matrix(0.5,0,0,0.5,12.5,37.5)"></use><use id="SvgjsUse1317" xlink:href="#G" x="125" y="25" transform="matrix(0.5,0,0,0.5,87.5,37.5)"></use><use id="SvgjsUse1318" xlink:href="#Y" x="-25" y="75" transform="matrix(0.5,0,0,0.5,12.5,62.5)"></use><use id="SvgjsUse1319" xlink:href="#R" x="125" y="75" transform="matrix(0.5,0,0,0.5,87.5,62.5)"></use><use id="SvgjsUse1320" xlink:href="#Y" x="-25" y="125" transform="matrix(0.5,0,0,0.5,12.5,87.5)"></use><use id="SvgjsUse1321" xlink:href="#Y" x="25" y="125" transform="matrix(0.5,0,0,0.5,37.5,87.5)"></use><use id="SvgjsUse1322" xlink:href="#R" x="75" y="125" transform="matrix(0.5,0,0,0.5,62.5,87.5)"></use><use id="SvgjsUse1323" xlink:href="#R" x="125" y="125" transform="matrix(0.5,0,0,0.5,87.5,87.5)"></use></g></svg>